M48
; DRILL file {KiCad (6.0.0)} date Tue Feb  8 12:17:06 2022
; FORMAT={-:-/ absolute / inch / decimal}
; #@! TF.CreationDate,2022-02-08T12:17:06+05:30
; #@! TF.GenerationSoftware,Kicad,Pcbnew,(6.0.0)
; #@! TF.FileFunction,Plated,1,2,PTH
FMAT,2
INCH
; #@! TA.AperFunction,Plated,PTH,ViaDrill
T1C0.0220
; #@! TA.AperFunction,Plated,PTH,ComponentDrill
T2C0.0276
; #@! TA.AperFunction,Plated,PTH,ComponentDrill
T3C0.0409
%
G90
G05
T1
X1.76Y-5.22
X1.9Y-5.05
X1.99Y-4.78
X2.0Y-4.98
X2.03Y-5.39
X2.07Y-5.11
X2.1157Y-4.6851
X2.19Y-5.42
X2.2Y-4.58
X2.23Y-4.75
X2.32Y-4.71
X2.5Y-5.43
X2.58Y-5.33
X2.58Y-5.46
X2.81Y-5.01
X2.82Y-4.92
X2.93Y-5.1
X3.5824Y-4.9196
X3.59Y-4.79
X3.66Y-5.15
X4.32Y-4.78
T3
X3.1996Y-5.5839
X3.2002Y-4.8348
X3.2996Y-5.5839
X3.3002Y-4.8348
X3.9502Y-4.8348
X3.9502Y-5.5848
X4.0502Y-4.8348
X4.0502Y-5.5848
T2
G00X1.6292Y-3.9925
M15
G01X1.6292Y-4.0397
M16
G05
G00X1.6292Y-4.1696
M15
G01X1.6292Y-4.2169
M16
G05
G00X1.9166Y-3.9925
M15
G01X1.9166Y-4.0397
M16
G05
G00X1.9166Y-4.1696
M15
G01X1.9166Y-4.2169
M16
G05
T0
M30
