%TF.GenerationSoftware,KiCad,Pcbnew,(6.0.0)*%
%TF.CreationDate,2022-02-08T12:16:45+05:30*%
%TF.ProjectId,keebk75pcb,6b656562-6b37-4357-9063-622e6b696361,rev?*%
%TF.SameCoordinates,Original*%
%TF.FileFunction,Soldermask,Bot*%
%TF.FilePolarity,Negative*%
%FSLAX46Y46*%
G04 Gerber Fmt 4.6, Leading zero omitted, Abs format (unit mm)*
G04 Created by KiCad (PCBNEW (6.0.0)) date 2022-02-08 12:16:45*
%MOMM*%
%LPD*%
G01*
G04 APERTURE LIST*
G04 Aperture macros list*
%AMRoundRect*
0 Rectangle with rounded corners*
0 $1 Rounding radius*
0 $2 $3 $4 $5 $6 $7 $8 $9 X,Y pos of 4 corners*
0 Add a 4 corners polygon primitive as box body*
4,1,4,$2,$3,$4,$5,$6,$7,$8,$9,$2,$3,0*
0 Add four circle primitives for the rounded corners*
1,1,$1+$1,$2,$3*
1,1,$1+$1,$4,$5*
1,1,$1+$1,$6,$7*
1,1,$1+$1,$8,$9*
0 Add four rect primitives between the rounded corners*
20,1,$1+$1,$2,$3,$4,$5,0*
20,1,$1+$1,$4,$5,$6,$7,0*
20,1,$1+$1,$6,$7,$8,$9,0*
20,1,$1+$1,$8,$9,$2,$3,0*%
G04 Aperture macros list end*
%ADD10R,0.500000X2.250000*%
%ADD11O,1.700000X2.700000*%
%ADD12C,3.987800*%
%ADD13C,3.000000*%
%ADD14C,1.750000*%
%ADD15R,2.550000X2.500000*%
%ADD16C,1.905000*%
%ADD17R,1.905000X1.905000*%
%ADD18R,1.200000X0.900000*%
%ADD19R,2.100000X1.800000*%
%ADD20RoundRect,0.250000X0.250000X0.475000X-0.250000X0.475000X-0.250000X-0.475000X0.250000X-0.475000X0*%
%ADD21RoundRect,0.250000X-0.625000X0.375000X-0.625000X-0.375000X0.625000X-0.375000X0.625000X0.375000X0*%
%ADD22RoundRect,0.250000X-0.475000X0.250000X-0.475000X-0.250000X0.475000X-0.250000X0.475000X0.250000X0*%
%ADD23R,1.500000X0.550000*%
%ADD24R,0.550000X1.500000*%
%ADD25RoundRect,0.250000X-0.450000X0.262500X-0.450000X-0.262500X0.450000X-0.262500X0.450000X0.262500X0*%
%ADD26RoundRect,0.250000X0.475000X-0.250000X0.475000X0.250000X-0.475000X0.250000X-0.475000X-0.250000X0*%
%ADD27R,1.800000X1.100000*%
G04 APERTURE END LIST*
D10*
%TO.C,USB1*%
X46631182Y-106508400D03*
X45831182Y-106508400D03*
X45031182Y-106508400D03*
X44231182Y-106508400D03*
X43431182Y-106508400D03*
D11*
X41381182Y-106508400D03*
X48681182Y-106508400D03*
X48681182Y-102008400D03*
X41381182Y-102008400D03*
%TD*%
D12*
%TO.C,MX2*%
X101606248Y-117725000D03*
D13*
X97796248Y-115185000D03*
X104146248Y-112645000D03*
D14*
X106686248Y-117725000D03*
X96526248Y-117725000D03*
D15*
X94521248Y-115185000D03*
X107448248Y-112645000D03*
D16*
X100336248Y-122805000D03*
D17*
X102876248Y-122805000D03*
%TD*%
D13*
%TO.C,MX1*%
X78746248Y-115185000D03*
X85096248Y-112645000D03*
D14*
X87636248Y-117725000D03*
D12*
X82556248Y-117725000D03*
D14*
X77476248Y-117725000D03*
D15*
X75471248Y-115185000D03*
X88398248Y-112645000D03*
D16*
X81286248Y-122805000D03*
D17*
X83826248Y-122805000D03*
%TD*%
D14*
%TO.C,MX4*%
X96526248Y-136775000D03*
D12*
X101606248Y-136775000D03*
D14*
X106686248Y-136775000D03*
D13*
X104146248Y-131695000D03*
X97796248Y-134235000D03*
D15*
X94521248Y-134235000D03*
X107448248Y-131695000D03*
D16*
X100336248Y-141855000D03*
D17*
X102876248Y-141855000D03*
%TD*%
D14*
%TO.C,MX3*%
X87619775Y-136750578D03*
X77459775Y-136750578D03*
D13*
X78729775Y-134210578D03*
D12*
X82539775Y-136750578D03*
D13*
X85079775Y-131670578D03*
D15*
X75454775Y-134210578D03*
X88381775Y-131670578D03*
D16*
X81269775Y-141830578D03*
D17*
X83809775Y-141830578D03*
%TD*%
D18*
%TO.C,D3*%
X109543748Y-119375000D03*
X109543748Y-116075000D03*
%TD*%
D19*
%TO.C,Y1*%
X60886000Y-117990000D03*
X57986000Y-117990000D03*
X57986000Y-115690000D03*
X60886000Y-115690000D03*
%TD*%
D20*
%TO.C,C4*%
X64196000Y-141224000D03*
X62296000Y-141224000D03*
%TD*%
%TO.C,C7*%
X52258000Y-141224000D03*
X50358000Y-141224000D03*
%TD*%
D21*
%TO.C,F1*%
X36322000Y-118742000D03*
X36322000Y-121542000D03*
%TD*%
D22*
%TO.C,C2*%
X65278000Y-115890000D03*
X65278000Y-117790000D03*
%TD*%
D18*
%TO.C,D2*%
X90493748Y-119375000D03*
X90493748Y-116075000D03*
%TD*%
D23*
%TO.C,U1*%
X53981248Y-133643750D03*
X53981248Y-132843750D03*
X53981248Y-132043750D03*
X53981248Y-131243750D03*
X53981248Y-130443750D03*
X53981248Y-129643750D03*
X53981248Y-128843750D03*
X53981248Y-128043750D03*
X53981248Y-127243750D03*
X53981248Y-126443750D03*
X53981248Y-125643750D03*
D24*
X55681248Y-123943750D03*
X56481248Y-123943750D03*
X57281248Y-123943750D03*
X58081248Y-123943750D03*
X58881248Y-123943750D03*
X59681248Y-123943750D03*
X60481248Y-123943750D03*
X61281248Y-123943750D03*
X62081248Y-123943750D03*
X62881248Y-123943750D03*
X63681248Y-123943750D03*
D23*
X65381248Y-125643750D03*
X65381248Y-126443750D03*
X65381248Y-127243750D03*
X65381248Y-128043750D03*
X65381248Y-128843750D03*
X65381248Y-129643750D03*
X65381248Y-130443750D03*
X65381248Y-131243750D03*
X65381248Y-132043750D03*
X65381248Y-132843750D03*
X65381248Y-133643750D03*
D24*
X63681248Y-135343750D03*
X62881248Y-135343750D03*
X62081248Y-135343750D03*
X61281248Y-135343750D03*
X60481248Y-135343750D03*
X59681248Y-135343750D03*
X58881248Y-135343750D03*
X58081248Y-135343750D03*
X57281248Y-135343750D03*
X56481248Y-135343750D03*
X55681248Y-135343750D03*
%TD*%
D25*
%TO.C,R2*%
X46736000Y-112625500D03*
X46736000Y-114450500D03*
%TD*%
%TO.C,R1*%
X42926000Y-112625500D03*
X42926000Y-114450500D03*
%TD*%
D18*
%TO.C,D4*%
X109543748Y-138425000D03*
X109543748Y-135125000D03*
%TD*%
D26*
%TO.C,C1*%
X69850000Y-124902000D03*
X69850000Y-123002000D03*
%TD*%
%TO.C,C3*%
X54102000Y-117790000D03*
X54102000Y-115890000D03*
%TD*%
D22*
%TO.C,C5*%
X46990000Y-135448000D03*
X46990000Y-137348000D03*
%TD*%
D25*
%TO.C,R3*%
X48260000Y-131929500D03*
X48260000Y-133754500D03*
%TD*%
D18*
%TO.C,D1*%
X90206346Y-138425000D03*
X90206346Y-135125000D03*
%TD*%
D25*
%TO.C,R4*%
X69850000Y-133707500D03*
X69850000Y-135532500D03*
%TD*%
D26*
%TO.C,C6*%
X50800000Y-124648000D03*
X50800000Y-122748000D03*
%TD*%
D27*
%TO.C,SW1*%
X36778000Y-145360000D03*
X42978000Y-141660000D03*
X36778000Y-141660000D03*
X42978000Y-145360000D03*
%TD*%
M02*
