%TF.GenerationSoftware,KiCad,Pcbnew,(6.0.0)*%
%TF.CreationDate,2022-02-08T12:16:45+05:30*%
%TF.ProjectId,keebk75pcb,6b656562-6b37-4357-9063-622e6b696361,rev?*%
%TF.SameCoordinates,Original*%
%TF.FileFunction,Copper,L1,Top*%
%TF.FilePolarity,Positive*%
%FSLAX46Y46*%
G04 Gerber Fmt 4.6, Leading zero omitted, Abs format (unit mm)*
G04 Created by KiCad (PCBNEW (6.0.0)) date 2022-02-08 12:16:45*
%MOMM*%
%LPD*%
G01*
G04 APERTURE LIST*
%TA.AperFunction,ComponentPad*%
%ADD10O,1.700000X2.700000*%
%TD*%
%TA.AperFunction,ComponentPad*%
%ADD11C,1.905000*%
%TD*%
%TA.AperFunction,ComponentPad*%
%ADD12R,1.905000X1.905000*%
%TD*%
%TA.AperFunction,ViaPad*%
%ADD13C,0.800000*%
%TD*%
%TA.AperFunction,Conductor*%
%ADD14C,0.254000*%
%TD*%
G04 APERTURE END LIST*
D10*
%TO.P,USB1,6,SHIELD*%
%TO.N,unconnected-(USB1-Pad6)*%
X41381182Y-106508400D03*
X48681182Y-106508400D03*
X48681182Y-102008400D03*
X41381182Y-102008400D03*
%TD*%
D11*
%TO.P,MX2,3,LED*%
%TO.N,unconnected-(MX2-Pad3)*%
X100336248Y-122805000D03*
D12*
%TO.P,MX2,4,LEDGND*%
%TO.N,unconnected-(MX2-Pad4)*%
X102876248Y-122805000D03*
%TD*%
D11*
%TO.P,MX1,3,LED*%
%TO.N,unconnected-(MX1-Pad3)*%
X81286248Y-122805000D03*
D12*
%TO.P,MX1,4,LEDGND*%
%TO.N,unconnected-(MX1-Pad4)*%
X83826248Y-122805000D03*
%TD*%
D11*
%TO.P,MX4,3,LED*%
%TO.N,unconnected-(MX4-Pad3)*%
X100336248Y-141855000D03*
D12*
%TO.P,MX4,4,LEDGND*%
%TO.N,unconnected-(MX4-Pad4)*%
X102876248Y-141855000D03*
%TD*%
D11*
%TO.P,MX3,3,LED*%
%TO.N,unconnected-(MX3-Pad3)*%
X81269775Y-141830578D03*
D12*
%TO.P,MX3,4,LEDGND*%
%TO.N,unconnected-(MX3-Pad4)*%
X83809775Y-141830578D03*
%TD*%
D13*
%TO.N,Col1*%
X74422000Y-129540000D03*
X92964000Y-130810000D03*
%TO.N,Row0*%
X109728000Y-121412000D03*
X91186000Y-121666000D03*
X90994067Y-124956681D03*
X71374000Y-127254000D03*
%TO.N,+5V*%
X50800000Y-126492000D03*
X65532000Y-138684000D03*
X65532000Y-135382000D03*
X48260000Y-128270000D03*
X63500000Y-137922000D03*
X71628000Y-124968000D03*
X55626000Y-137668000D03*
X56642000Y-120650000D03*
X50546000Y-121412000D03*
%TO.N,Net-(C3-Pad2)*%
X58928000Y-119634000D03*
X55880000Y-116332000D03*
%TO.N,Net-(C7-Pad1)*%
X51562000Y-136906000D03*
X52578000Y-129794000D03*
%TO.N,Net-(R3-Pad2)*%
X44704000Y-132588000D03*
X53738500Y-119000277D03*
%TD*%
D14*
%TO.N,Row0*%
X90256237Y-125694511D02*
X90982748Y-124968000D01*
X71663489Y-125694511D02*
X90256237Y-125694511D01*
X71374000Y-125984000D02*
X71663489Y-125694511D01*
X71374000Y-127254000D02*
X71374000Y-125984000D01*
%TO.N,Col1*%
X74676057Y-129794057D02*
X74422000Y-129540000D01*
X91948057Y-129794057D02*
X74676057Y-129794057D01*
X92964000Y-130810000D02*
X91948057Y-129794057D01*
%TO.N,Row0*%
X91440000Y-121412000D02*
X109728000Y-121412000D01*
X91186000Y-121666000D02*
X91440000Y-121412000D01*
%TO.N,+5V*%
X63500000Y-137922000D02*
X55626000Y-137922000D01*
X50546000Y-120650000D02*
X50546000Y-121412000D01*
X50800000Y-126492000D02*
X48260000Y-126492000D01*
X65532000Y-138684000D02*
X65532000Y-135382000D01*
X56642000Y-120650000D02*
X71628000Y-120650000D01*
X71628000Y-120650000D02*
X71628000Y-124968000D01*
X56642000Y-120650000D02*
X50546000Y-120650000D01*
X48260000Y-126492000D02*
X48260000Y-128270000D01*
X55626000Y-137922000D02*
X55626000Y-137668000D01*
%TO.N,Net-(C3-Pad2)*%
X55880000Y-116332000D02*
X55880000Y-119634000D01*
X55880000Y-119634000D02*
X58928000Y-119634000D01*
%TO.N,Net-(C7-Pad1)*%
X52578000Y-129794000D02*
X51562000Y-130810000D01*
X51562000Y-130810000D02*
X51562000Y-136906000D01*
%TO.N,Net-(R3-Pad2)*%
X53738500Y-119000277D02*
X44704000Y-119000277D01*
X44704000Y-119000277D02*
X44704000Y-132588000D01*
%TD*%
M02*
