%TF.GenerationSoftware,KiCad,Pcbnew,(6.0.0)*%
%TF.CreationDate,2022-02-08T12:16:45+05:30*%
%TF.ProjectId,keebk75pcb,6b656562-6b37-4357-9063-622e6b696361,rev?*%
%TF.SameCoordinates,Original*%
%TF.FileFunction,Copper,L2,Bot*%
%TF.FilePolarity,Positive*%
%FSLAX46Y46*%
G04 Gerber Fmt 4.6, Leading zero omitted, Abs format (unit mm)*
G04 Created by KiCad (PCBNEW (6.0.0)) date 2022-02-08 12:16:45*
%MOMM*%
%LPD*%
G01*
G04 APERTURE LIST*
G04 Aperture macros list*
%AMRoundRect*
0 Rectangle with rounded corners*
0 $1 Rounding radius*
0 $2 $3 $4 $5 $6 $7 $8 $9 X,Y pos of 4 corners*
0 Add a 4 corners polygon primitive as box body*
4,1,4,$2,$3,$4,$5,$6,$7,$8,$9,$2,$3,0*
0 Add four circle primitives for the rounded corners*
1,1,$1+$1,$2,$3*
1,1,$1+$1,$4,$5*
1,1,$1+$1,$6,$7*
1,1,$1+$1,$8,$9*
0 Add four rect primitives between the rounded corners*
20,1,$1+$1,$2,$3,$4,$5,0*
20,1,$1+$1,$4,$5,$6,$7,0*
20,1,$1+$1,$6,$7,$8,$9,0*
20,1,$1+$1,$8,$9,$2,$3,0*%
G04 Aperture macros list end*
%TA.AperFunction,SMDPad,CuDef*%
%ADD10R,0.500000X2.250000*%
%TD*%
%TA.AperFunction,ComponentPad*%
%ADD11O,1.700000X2.700000*%
%TD*%
%TA.AperFunction,SMDPad,CuDef*%
%ADD12R,2.550000X2.500000*%
%TD*%
%TA.AperFunction,ComponentPad*%
%ADD13C,1.905000*%
%TD*%
%TA.AperFunction,ComponentPad*%
%ADD14R,1.905000X1.905000*%
%TD*%
%TA.AperFunction,SMDPad,CuDef*%
%ADD15R,1.200000X0.900000*%
%TD*%
%TA.AperFunction,SMDPad,CuDef*%
%ADD16R,2.100000X1.800000*%
%TD*%
%TA.AperFunction,SMDPad,CuDef*%
%ADD17RoundRect,0.250000X0.250000X0.475000X-0.250000X0.475000X-0.250000X-0.475000X0.250000X-0.475000X0*%
%TD*%
%TA.AperFunction,SMDPad,CuDef*%
%ADD18RoundRect,0.250000X-0.625000X0.375000X-0.625000X-0.375000X0.625000X-0.375000X0.625000X0.375000X0*%
%TD*%
%TA.AperFunction,SMDPad,CuDef*%
%ADD19RoundRect,0.250000X-0.475000X0.250000X-0.475000X-0.250000X0.475000X-0.250000X0.475000X0.250000X0*%
%TD*%
%TA.AperFunction,SMDPad,CuDef*%
%ADD20R,1.500000X0.550000*%
%TD*%
%TA.AperFunction,SMDPad,CuDef*%
%ADD21R,0.550000X1.500000*%
%TD*%
%TA.AperFunction,SMDPad,CuDef*%
%ADD22RoundRect,0.250000X-0.450000X0.262500X-0.450000X-0.262500X0.450000X-0.262500X0.450000X0.262500X0*%
%TD*%
%TA.AperFunction,SMDPad,CuDef*%
%ADD23RoundRect,0.250000X0.475000X-0.250000X0.475000X0.250000X-0.475000X0.250000X-0.475000X-0.250000X0*%
%TD*%
%TA.AperFunction,SMDPad,CuDef*%
%ADD24R,1.800000X1.100000*%
%TD*%
%TA.AperFunction,ViaPad*%
%ADD25C,0.800000*%
%TD*%
%TA.AperFunction,Conductor*%
%ADD26C,0.254000*%
%TD*%
%TA.AperFunction,Conductor*%
%ADD27C,0.381000*%
%TD*%
G04 APERTURE END LIST*
D10*
%TO.P,USB1,1,GND*%
%TO.N,GND*%
X46631182Y-106508400D03*
%TO.P,USB1,2,ID*%
%TO.N,unconnected-(USB1-Pad2)*%
X45831182Y-106508400D03*
%TO.P,USB1,3,D+*%
%TO.N,D+*%
X45031182Y-106508400D03*
%TO.P,USB1,4,D-*%
%TO.N,D-*%
X44231182Y-106508400D03*
%TO.P,USB1,5,VBUS*%
%TO.N,/VCC*%
X43431182Y-106508400D03*
D11*
%TO.P,USB1,6,SHIELD*%
%TO.N,unconnected-(USB1-Pad6)*%
X41381182Y-106508400D03*
X48681182Y-106508400D03*
X48681182Y-102008400D03*
X41381182Y-102008400D03*
%TD*%
D12*
%TO.P,MX2,1,COL*%
%TO.N,Col1*%
X94521248Y-115185000D03*
%TO.P,MX2,2,ROW*%
%TO.N,Net-(D3-Pad2)*%
X107448248Y-112645000D03*
D13*
%TO.P,MX2,3,LED*%
%TO.N,unconnected-(MX2-Pad3)*%
X100336248Y-122805000D03*
D14*
%TO.P,MX2,4,LEDGND*%
%TO.N,unconnected-(MX2-Pad4)*%
X102876248Y-122805000D03*
%TD*%
D12*
%TO.P,MX1,1,COL*%
%TO.N,Col0*%
X75471248Y-115185000D03*
%TO.P,MX1,2,ROW*%
%TO.N,Net-(D2-Pad2)*%
X88398248Y-112645000D03*
D13*
%TO.P,MX1,3,LED*%
%TO.N,unconnected-(MX1-Pad3)*%
X81286248Y-122805000D03*
D14*
%TO.P,MX1,4,LEDGND*%
%TO.N,unconnected-(MX1-Pad4)*%
X83826248Y-122805000D03*
%TD*%
D12*
%TO.P,MX4,1,COL*%
%TO.N,Col1*%
X94521248Y-134235000D03*
%TO.P,MX4,2,ROW*%
%TO.N,Net-(D4-Pad2)*%
X107448248Y-131695000D03*
D13*
%TO.P,MX4,3,LED*%
%TO.N,unconnected-(MX4-Pad3)*%
X100336248Y-141855000D03*
D14*
%TO.P,MX4,4,LEDGND*%
%TO.N,unconnected-(MX4-Pad4)*%
X102876248Y-141855000D03*
%TD*%
D12*
%TO.P,MX3,1,COL*%
%TO.N,Col0*%
X75454775Y-134210578D03*
%TO.P,MX3,2,ROW*%
%TO.N,Net-(D1-Pad2)*%
X88381775Y-131670578D03*
D13*
%TO.P,MX3,3,LED*%
%TO.N,unconnected-(MX3-Pad3)*%
X81269775Y-141830578D03*
D14*
%TO.P,MX3,4,LEDGND*%
%TO.N,unconnected-(MX3-Pad4)*%
X83809775Y-141830578D03*
%TD*%
D15*
%TO.P,D3,1,K*%
%TO.N,Row0*%
X109543748Y-119375000D03*
%TO.P,D3,2,A*%
%TO.N,Net-(D3-Pad2)*%
X109543748Y-116075000D03*
%TD*%
D16*
%TO.P,Y1,1,1*%
%TO.N,Net-(C2-Pad2)*%
X60886000Y-117990000D03*
%TO.P,Y1,2,2*%
%TO.N,GND*%
X57986000Y-117990000D03*
%TO.P,Y1,3,3*%
%TO.N,Net-(C3-Pad2)*%
X57986000Y-115690000D03*
%TO.P,Y1,4,4*%
%TO.N,GND*%
X60886000Y-115690000D03*
%TD*%
D17*
%TO.P,C4,1*%
%TO.N,+5V*%
X64196000Y-141224000D03*
%TO.P,C4,2*%
%TO.N,GND*%
X62296000Y-141224000D03*
%TD*%
%TO.P,C7,1*%
%TO.N,Net-(C7-Pad1)*%
X52258000Y-141224000D03*
%TO.P,C7,2*%
%TO.N,GND*%
X50358000Y-141224000D03*
%TD*%
D18*
%TO.P,F1,1*%
%TO.N,/VCC*%
X36322000Y-118742000D03*
%TO.P,F1,2*%
%TO.N,+5V*%
X36322000Y-121542000D03*
%TD*%
D19*
%TO.P,C2,1*%
%TO.N,GND*%
X65278000Y-115890000D03*
%TO.P,C2,2*%
%TO.N,Net-(C2-Pad2)*%
X65278000Y-117790000D03*
%TD*%
D15*
%TO.P,D2,1,K*%
%TO.N,Row0*%
X90493748Y-119375000D03*
%TO.P,D2,2,A*%
%TO.N,Net-(D2-Pad2)*%
X90493748Y-116075000D03*
%TD*%
D20*
%TO.P,U1,1,PE6*%
%TO.N,unconnected-(U1-Pad1)*%
X53981248Y-133643750D03*
%TO.P,U1,2,UVCC*%
%TO.N,+5V*%
X53981248Y-132843750D03*
%TO.P,U1,3,D-*%
%TO.N,Net-(R1-Pad2)*%
X53981248Y-132043750D03*
%TO.P,U1,4,D+*%
%TO.N,Net-(R2-Pad2)*%
X53981248Y-131243750D03*
%TO.P,U1,5,UGND*%
%TO.N,GND*%
X53981248Y-130443750D03*
%TO.P,U1,6,UCAP*%
%TO.N,Net-(C7-Pad1)*%
X53981248Y-129643750D03*
%TO.P,U1,7,VBUS*%
%TO.N,+5V*%
X53981248Y-128843750D03*
%TO.P,U1,8,PB0*%
%TO.N,unconnected-(U1-Pad8)*%
X53981248Y-128043750D03*
%TO.P,U1,9,PB1*%
%TO.N,unconnected-(U1-Pad9)*%
X53981248Y-127243750D03*
%TO.P,U1,10,PB2*%
%TO.N,unconnected-(U1-Pad10)*%
X53981248Y-126443750D03*
%TO.P,U1,11,PB3*%
%TO.N,unconnected-(U1-Pad11)*%
X53981248Y-125643750D03*
D21*
%TO.P,U1,12,PB7*%
%TO.N,unconnected-(U1-Pad12)*%
X55681248Y-123943750D03*
%TO.P,U1,13,~{RESET}*%
%TO.N,Net-(R3-Pad2)*%
X56481248Y-123943750D03*
%TO.P,U1,14,VCC*%
%TO.N,+5V*%
X57281248Y-123943750D03*
%TO.P,U1,15,GND*%
%TO.N,GND*%
X58081248Y-123943750D03*
%TO.P,U1,16,XTAL2*%
%TO.N,Net-(C3-Pad2)*%
X58881248Y-123943750D03*
%TO.P,U1,17,XTAL1*%
%TO.N,Net-(C2-Pad2)*%
X59681248Y-123943750D03*
%TO.P,U1,18,PD0*%
%TO.N,unconnected-(U1-Pad18)*%
X60481248Y-123943750D03*
%TO.P,U1,19,PD1*%
%TO.N,unconnected-(U1-Pad19)*%
X61281248Y-123943750D03*
%TO.P,U1,20,PD2*%
%TO.N,unconnected-(U1-Pad20)*%
X62081248Y-123943750D03*
%TO.P,U1,21,PD3*%
%TO.N,unconnected-(U1-Pad21)*%
X62881248Y-123943750D03*
%TO.P,U1,22,PD5*%
%TO.N,unconnected-(U1-Pad22)*%
X63681248Y-123943750D03*
D20*
%TO.P,U1,23,GND*%
%TO.N,GND*%
X65381248Y-125643750D03*
%TO.P,U1,24,AVCC*%
%TO.N,+5V*%
X65381248Y-126443750D03*
%TO.P,U1,25,PD4*%
%TO.N,unconnected-(U1-Pad25)*%
X65381248Y-127243750D03*
%TO.P,U1,26,PD6*%
%TO.N,unconnected-(U1-Pad26)*%
X65381248Y-128043750D03*
%TO.P,U1,27,PD7*%
%TO.N,Row0*%
X65381248Y-128843750D03*
%TO.P,U1,28,PB4*%
%TO.N,Col1*%
X65381248Y-129643750D03*
%TO.P,U1,29,PB5*%
%TO.N,Col0*%
X65381248Y-130443750D03*
%TO.P,U1,30,PB6*%
%TO.N,Row1*%
X65381248Y-131243750D03*
%TO.P,U1,31,PC6*%
%TO.N,unconnected-(U1-Pad31)*%
X65381248Y-132043750D03*
%TO.P,U1,32,PC7*%
%TO.N,unconnected-(U1-Pad32)*%
X65381248Y-132843750D03*
%TO.P,U1,33,~{HWB}/PE2*%
%TO.N,Net-(R4-Pad1)*%
X65381248Y-133643750D03*
D21*
%TO.P,U1,34,VCC*%
%TO.N,+5V*%
X63681248Y-135343750D03*
%TO.P,U1,35,GND*%
%TO.N,GND*%
X62881248Y-135343750D03*
%TO.P,U1,36,PF7*%
%TO.N,unconnected-(U1-Pad36)*%
X62081248Y-135343750D03*
%TO.P,U1,37,PF6*%
%TO.N,unconnected-(U1-Pad37)*%
X61281248Y-135343750D03*
%TO.P,U1,38,PF5*%
%TO.N,unconnected-(U1-Pad38)*%
X60481248Y-135343750D03*
%TO.P,U1,39,PF4*%
%TO.N,unconnected-(U1-Pad39)*%
X59681248Y-135343750D03*
%TO.P,U1,40,PF1*%
%TO.N,unconnected-(U1-Pad40)*%
X58881248Y-135343750D03*
%TO.P,U1,41,PF0*%
%TO.N,unconnected-(U1-Pad41)*%
X58081248Y-135343750D03*
%TO.P,U1,42,AREF*%
%TO.N,unconnected-(U1-Pad42)*%
X57281248Y-135343750D03*
%TO.P,U1,43,GND*%
%TO.N,GND*%
X56481248Y-135343750D03*
%TO.P,U1,44,AVCC*%
%TO.N,+5V*%
X55681248Y-135343750D03*
%TD*%
D22*
%TO.P,R2,1*%
%TO.N,D+*%
X46736000Y-112625500D03*
%TO.P,R2,2*%
%TO.N,Net-(R2-Pad2)*%
X46736000Y-114450500D03*
%TD*%
%TO.P,R1,1*%
%TO.N,D-*%
X42926000Y-112625500D03*
%TO.P,R1,2*%
%TO.N,Net-(R1-Pad2)*%
X42926000Y-114450500D03*
%TD*%
D15*
%TO.P,D4,1,K*%
%TO.N,Row1*%
X109543748Y-138425000D03*
%TO.P,D4,2,A*%
%TO.N,Net-(D4-Pad2)*%
X109543748Y-135125000D03*
%TD*%
D23*
%TO.P,C1,1*%
%TO.N,+5V*%
X69850000Y-124902000D03*
%TO.P,C1,2*%
%TO.N,GND*%
X69850000Y-123002000D03*
%TD*%
%TO.P,C3,1*%
%TO.N,GND*%
X54102000Y-117790000D03*
%TO.P,C3,2*%
%TO.N,Net-(C3-Pad2)*%
X54102000Y-115890000D03*
%TD*%
D19*
%TO.P,C5,1*%
%TO.N,+5V*%
X46990000Y-135448000D03*
%TO.P,C5,2*%
%TO.N,GND*%
X46990000Y-137348000D03*
%TD*%
D22*
%TO.P,R3,1*%
%TO.N,+5V*%
X48260000Y-131929500D03*
%TO.P,R3,2*%
%TO.N,Net-(R3-Pad2)*%
X48260000Y-133754500D03*
%TD*%
D15*
%TO.P,D1,1,K*%
%TO.N,Row1*%
X90206346Y-138425000D03*
%TO.P,D1,2,A*%
%TO.N,Net-(D1-Pad2)*%
X90206346Y-135125000D03*
%TD*%
D22*
%TO.P,R4,1*%
%TO.N,Net-(R4-Pad1)*%
X69850000Y-133707500D03*
%TO.P,R4,2*%
%TO.N,GND*%
X69850000Y-135532500D03*
%TD*%
D23*
%TO.P,C6,1*%
%TO.N,+5V*%
X50800000Y-124648000D03*
%TO.P,C6,2*%
%TO.N,GND*%
X50800000Y-122748000D03*
%TD*%
D24*
%TO.P,SW1,1,1*%
%TO.N,GND*%
X36778000Y-145360000D03*
%TO.P,SW1,2,2*%
%TO.N,Net-(R3-Pad2)*%
X42978000Y-141660000D03*
%TO.P,SW1,3*%
%TO.N,N/C*%
X36778000Y-141660000D03*
%TO.P,SW1,4*%
X42978000Y-145360000D03*
%TD*%
D25*
%TO.N,Col1*%
X74422000Y-129540000D03*
X92964000Y-130810000D03*
%TO.N,Row0*%
X109728000Y-121412000D03*
X91186000Y-121666000D03*
X90994067Y-124956681D03*
X71374000Y-127254000D03*
%TO.N,+5V*%
X50800000Y-126492000D03*
X65532000Y-138684000D03*
X65532000Y-135382000D03*
X48260000Y-128270000D03*
X63500000Y-137922000D03*
X71628000Y-124968000D03*
X55626000Y-137668000D03*
X56642000Y-120650000D03*
X50546000Y-121412000D03*
%TO.N,Net-(C3-Pad2)*%
X58928000Y-119634000D03*
X55880000Y-116332000D03*
%TO.N,Net-(C7-Pad1)*%
X51562000Y-136906000D03*
X52578000Y-129794000D03*
%TO.N,Net-(R3-Pad2)*%
X44704000Y-132588000D03*
X53738500Y-119000277D03*
%TD*%
D26*
%TO.N,unconnected-(USB1-Pad6)*%
X41381182Y-106508400D02*
X41381182Y-102008400D01*
X48681182Y-102008400D02*
X48681182Y-106508400D01*
%TO.N,Row0*%
X91186000Y-124764748D02*
X91186000Y-121666000D01*
X90982748Y-124968000D02*
X91186000Y-124764748D01*
X71374000Y-128524000D02*
X71374000Y-127254000D01*
X71054250Y-128843750D02*
X71374000Y-128524000D01*
X65381248Y-128843750D02*
X71054250Y-128843750D01*
%TO.N,Col1*%
X74318250Y-129643750D02*
X74422000Y-129540000D01*
X65381248Y-129643750D02*
X74318250Y-129643750D01*
X92964000Y-130810000D02*
X94267248Y-132113248D01*
X94267248Y-132113248D02*
X94521248Y-132113248D01*
X94521248Y-115185000D02*
X94521248Y-134235000D01*
%TO.N,Col0*%
X71687947Y-130443750D02*
X75454775Y-134210578D01*
X65381248Y-130443750D02*
X71687947Y-130443750D01*
%TO.N,Row1*%
X76791321Y-139120999D02*
X89510347Y-139120999D01*
X68914072Y-131243750D02*
X76791321Y-139120999D01*
X65381248Y-131243750D02*
X68914072Y-131243750D01*
X89510347Y-139120999D02*
X90206346Y-138425000D01*
%TO.N,Row0*%
X109728000Y-121412000D02*
X109728000Y-119559252D01*
X90678000Y-121666000D02*
X91186000Y-121666000D01*
X90678000Y-119559252D02*
X90678000Y-121666000D01*
%TO.N,+5V*%
X69850000Y-126443750D02*
X65381248Y-126443750D01*
X48260000Y-128270000D02*
X48260000Y-131929500D01*
X50800000Y-124648000D02*
X50800000Y-126492000D01*
X36322000Y-121542000D02*
X42118728Y-121542000D01*
X51052250Y-132843750D02*
X52833750Y-132843750D01*
X50800000Y-126492000D02*
X50800000Y-128299150D01*
X55626000Y-137668000D02*
X55626000Y-135398998D01*
X64196000Y-138684000D02*
X64196000Y-137922000D01*
X71628000Y-124968000D02*
X69916000Y-124968000D01*
X48260000Y-131929500D02*
X49174250Y-132843750D01*
X57281248Y-123943750D02*
X57281248Y-121289248D01*
X69850000Y-124902000D02*
X69850000Y-126443750D01*
X51344600Y-128843750D02*
X53981248Y-128843750D01*
X65532000Y-135382000D02*
X63719498Y-135382000D01*
X64196000Y-137922000D02*
X63500000Y-137922000D01*
X64196000Y-141224000D02*
X64196000Y-138684000D01*
X50800000Y-128299150D02*
X51344600Y-128843750D01*
X52833750Y-132843750D02*
X53981248Y-132843750D01*
D27*
X49684980Y-121412000D02*
X50546000Y-121412000D01*
D26*
X55681248Y-135343750D02*
X52833750Y-135343750D01*
X48260000Y-127683272D02*
X48260000Y-128270000D01*
D27*
X49684980Y-123532980D02*
X49684980Y-121412000D01*
D26*
X49174250Y-132843750D02*
X51052250Y-132843750D01*
D27*
X50800000Y-124648000D02*
X49684980Y-123532980D01*
D26*
X51052250Y-135448000D02*
X51052250Y-132843750D01*
X64196000Y-138684000D02*
X65532000Y-138684000D01*
X46990000Y-135448000D02*
X51052250Y-135448000D01*
X57281248Y-121289248D02*
X56642000Y-120650000D01*
X42118728Y-121542000D02*
X48260000Y-127683272D01*
X52833750Y-135343750D02*
X52833750Y-132843750D01*
%TO.N,GND*%
X62881248Y-127139750D02*
X63006499Y-127014499D01*
X64377248Y-125643750D02*
X65381248Y-125643750D01*
X60886000Y-115690000D02*
X65078000Y-115690000D01*
X52390000Y-122748000D02*
X54662261Y-125020261D01*
X44204511Y-146236511D02*
X36778000Y-146236511D01*
X56481248Y-138541074D02*
X56481248Y-135343750D01*
X58081248Y-124947750D02*
X58081248Y-123943750D01*
X52390000Y-122748000D02*
X50800000Y-122748000D01*
X69850000Y-135532500D02*
X68962239Y-136420261D01*
X63006499Y-127014499D02*
X64377248Y-125643750D01*
X62682759Y-134267239D02*
X62992000Y-133957998D01*
X62992000Y-133957998D02*
X62992000Y-132050502D01*
X54662261Y-125020261D02*
X57986000Y-125020261D01*
X53981248Y-130443750D02*
X54985248Y-130443750D01*
X46736000Y-107696000D02*
X46631182Y-107696000D01*
X54302000Y-117990000D02*
X57986000Y-117990000D01*
X50358000Y-141224000D02*
X51409520Y-142275520D01*
X46990000Y-141224000D02*
X50358000Y-141224000D01*
X62881248Y-131939750D02*
X62881248Y-127139750D01*
X46990000Y-137348000D02*
X46990000Y-143451022D01*
X46990000Y-143451022D02*
X44204511Y-146236511D01*
X52390000Y-113350000D02*
X52390000Y-117790000D01*
X52746802Y-142275520D02*
X56481248Y-138541074D01*
X52390000Y-117790000D02*
X54102000Y-117790000D01*
X68962239Y-136420261D02*
X62715739Y-136420261D01*
X62682759Y-136420261D02*
X62682759Y-134267239D01*
X54985248Y-130443750D02*
X56481248Y-131939750D01*
X58282978Y-117990000D02*
X60582978Y-115690000D01*
X62992000Y-132050502D02*
X62881248Y-131939750D01*
X46631182Y-107696000D02*
X46631182Y-106508400D01*
X36778000Y-146236511D02*
X36778000Y-145360000D01*
X69850000Y-123002000D02*
X65381248Y-123002000D01*
X61214000Y-140142000D02*
X61214000Y-137889020D01*
X63006499Y-127014499D02*
X60147997Y-127014499D01*
X51409520Y-142275520D02*
X52746802Y-142275520D01*
X57986000Y-117990000D02*
X57986000Y-125020261D01*
X52390000Y-113350000D02*
X46736000Y-107696000D01*
X61214000Y-137889020D02*
X62682759Y-136420261D01*
X60147997Y-127014499D02*
X58081248Y-124947750D01*
X65381248Y-123002000D02*
X65381248Y-125643750D01*
X62296000Y-141224000D02*
X61214000Y-140142000D01*
X62881248Y-131939750D02*
X56481248Y-131939750D01*
X56481248Y-131939750D02*
X56481248Y-135343750D01*
%TO.N,Net-(C2-Pad2)*%
X60886000Y-117990000D02*
X65078000Y-117990000D01*
X60886000Y-117990000D02*
X59681248Y-119194752D01*
X59681248Y-119194752D02*
X59681248Y-123943750D01*
%TO.N,Net-(C3-Pad2)*%
X56522000Y-115690000D02*
X55880000Y-116332000D01*
X58881248Y-123943750D02*
X58881248Y-119680752D01*
X58881248Y-119680752D02*
X58928000Y-119634000D01*
X54302000Y-115690000D02*
X57986000Y-115690000D01*
%TO.N,Net-(C7-Pad1)*%
X52578000Y-129794000D02*
X53830998Y-129794000D01*
X53830998Y-129794000D02*
X53981248Y-129643750D01*
X52258000Y-136906000D02*
X52258000Y-141224000D01*
X51562000Y-136906000D02*
X52258000Y-136906000D01*
%TO.N,Row1*%
X108823327Y-139145421D02*
X109543748Y-138425000D01*
X90926767Y-139145421D02*
X108823327Y-139145421D01*
X90206346Y-138425000D02*
X90926767Y-139145421D01*
%TO.N,Net-(D1-Pad2)*%
X88381775Y-133590775D02*
X89916000Y-135125000D01*
X88381775Y-131670578D02*
X88381775Y-133590775D01*
%TO.N,Net-(D2-Pad2)*%
X88423248Y-112645000D02*
X90493748Y-114715500D01*
X90493748Y-114715500D02*
X90493748Y-116075000D01*
%TO.N,Net-(D3-Pad2)*%
X107448248Y-112645000D02*
X109543748Y-114740500D01*
X109543748Y-114740500D02*
X109543748Y-116075000D01*
%TO.N,Net-(D4-Pad2)*%
X109543748Y-133790500D02*
X109543748Y-135125000D01*
X107448248Y-131695000D02*
X109543748Y-133790500D01*
%TO.N,/VCC*%
X43431182Y-107383400D02*
X36322000Y-114492582D01*
X36322000Y-114492582D02*
X36322000Y-118742000D01*
%TO.N,Col0*%
X75471248Y-115185000D02*
X75471248Y-134194105D01*
%TO.N,D-*%
X44231182Y-111320318D02*
X42926000Y-112625500D01*
X44231182Y-106508400D02*
X44231182Y-111320318D01*
%TO.N,Net-(R1-Pad2)*%
X42926000Y-121707898D02*
X48986511Y-127768409D01*
X48986511Y-127768409D02*
X48986511Y-128996511D01*
X52033750Y-132043750D02*
X53981248Y-132043750D01*
X42926000Y-114450500D02*
X42926000Y-121707898D01*
X48986511Y-128996511D02*
X52033750Y-132043750D01*
%TO.N,D+*%
X45031182Y-110920682D02*
X46736000Y-112625500D01*
X45031182Y-106508400D02*
X45031182Y-110920682D01*
%TO.N,Net-(R2-Pad2)*%
X49440031Y-128180031D02*
X52503750Y-131243750D01*
X46736000Y-124876524D02*
X49440031Y-127580555D01*
X52503750Y-131243750D02*
X53981248Y-131243750D01*
X46736000Y-114450500D02*
X46736000Y-124876524D01*
X49440031Y-127580555D02*
X49440031Y-128180031D01*
%TO.N,Net-(R3-Pad2)*%
X56481248Y-122682000D02*
X53738500Y-119939252D01*
X56481248Y-123943750D02*
X56481248Y-122682000D01*
X42978000Y-133754500D02*
X42978000Y-141660000D01*
X42978000Y-133754500D02*
X48260000Y-133754500D01*
X53738500Y-119939252D02*
X53738500Y-119000277D01*
X44704000Y-132588000D02*
X44704000Y-133754500D01*
%TO.N,Net-(R4-Pad1)*%
X69786250Y-133643750D02*
X65381248Y-133643750D01*
%TD*%
%TA.AperFunction,Conductor*%
%TO.N,GND*%
G36*
X47392108Y-100790502D02*
G01*
X47438601Y-100844158D01*
X47448705Y-100914432D01*
X47442426Y-100939491D01*
X47400307Y-101055528D01*
X47364845Y-101153225D01*
X47363896Y-101158474D01*
X47363895Y-101158477D01*
X47324559Y-101376008D01*
X47324558Y-101376015D01*
X47323821Y-101380092D01*
X47322682Y-101404244D01*
X47322682Y-102566290D01*
X47337262Y-102738120D01*
X47338600Y-102743275D01*
X47338601Y-102743281D01*
X47393839Y-102956103D01*
X47395181Y-102961272D01*
X47489870Y-103171475D01*
X47618623Y-103362719D01*
X47777758Y-103529535D01*
X47962724Y-103667154D01*
X47967475Y-103669570D01*
X47967479Y-103669572D01*
X47976787Y-103674304D01*
X48028445Y-103723007D01*
X48045682Y-103786621D01*
X48045682Y-104734018D01*
X48025680Y-104802139D01*
X47985049Y-104841736D01*
X47877865Y-104906777D01*
X47873835Y-104910274D01*
X47738541Y-105027676D01*
X47703737Y-105057877D01*
X47700350Y-105062008D01*
X47566505Y-105225243D01*
X47507845Y-105265238D01*
X47436875Y-105267169D01*
X47376127Y-105230425D01*
X47351089Y-105189581D01*
X47334507Y-105145348D01*
X47325968Y-105129751D01*
X47249467Y-105027676D01*
X47236906Y-105015115D01*
X47134831Y-104938614D01*
X47119236Y-104930076D01*
X46998788Y-104884922D01*
X46983533Y-104881295D01*
X46932668Y-104875769D01*
X46925854Y-104875400D01*
X46899297Y-104875400D01*
X46884058Y-104879875D01*
X46882853Y-104881265D01*
X46881182Y-104888948D01*
X46881182Y-108123284D01*
X46885657Y-108138523D01*
X46887047Y-108139728D01*
X46894730Y-108141399D01*
X46925851Y-108141399D01*
X46932672Y-108141029D01*
X46983534Y-108135505D01*
X46998786Y-108131879D01*
X47119236Y-108086724D01*
X47134831Y-108078186D01*
X47236906Y-108001685D01*
X47249467Y-107989124D01*
X47325968Y-107887049D01*
X47334506Y-107871454D01*
X47352354Y-107823846D01*
X47394996Y-107767081D01*
X47461558Y-107742382D01*
X47530907Y-107757590D01*
X47574856Y-107797709D01*
X47615643Y-107858292D01*
X47618623Y-107862719D01*
X47622302Y-107866576D01*
X47622304Y-107866578D01*
X47688469Y-107935936D01*
X47777758Y-108029535D01*
X47962724Y-108167154D01*
X47967475Y-108169570D01*
X47967479Y-108169572D01*
X48065479Y-108219397D01*
X48168233Y-108271640D01*
X48173327Y-108273222D01*
X48173330Y-108273223D01*
X48364967Y-108332728D01*
X48388409Y-108340007D01*
X48393698Y-108340708D01*
X48611671Y-108369598D01*
X48611676Y-108369598D01*
X48616956Y-108370298D01*
X48622285Y-108370098D01*
X48622287Y-108370098D01*
X48732148Y-108365974D01*
X48847340Y-108361649D01*
X49072973Y-108314307D01*
X49077932Y-108312349D01*
X49077934Y-108312348D01*
X49282438Y-108231585D01*
X49282440Y-108231584D01*
X49287403Y-108229624D01*
X49386366Y-108169572D01*
X49479939Y-108112790D01*
X49479938Y-108112790D01*
X49484499Y-108110023D01*
X49566370Y-108038979D01*
X49654594Y-107962423D01*
X49654596Y-107962421D01*
X49658627Y-107958923D01*
X49730347Y-107871454D01*
X49801422Y-107784773D01*
X49801426Y-107784767D01*
X49804806Y-107780645D01*
X49821616Y-107751115D01*
X49916214Y-107584929D01*
X49918857Y-107580286D01*
X49997519Y-107363575D01*
X50020205Y-107238120D01*
X50037805Y-107140792D01*
X50037806Y-107140785D01*
X50038543Y-107136708D01*
X50039682Y-107112556D01*
X50039682Y-105950510D01*
X50025102Y-105778680D01*
X50023764Y-105773525D01*
X50023763Y-105773519D01*
X49968525Y-105560697D01*
X49968524Y-105560693D01*
X49967183Y-105555528D01*
X49872494Y-105345325D01*
X49743741Y-105154081D01*
X49735177Y-105145103D01*
X49623156Y-105027676D01*
X49584606Y-104987265D01*
X49539452Y-104953669D01*
X49447741Y-104885434D01*
X49399640Y-104849646D01*
X49394889Y-104847230D01*
X49394885Y-104847228D01*
X49385577Y-104842496D01*
X49333919Y-104793793D01*
X49316682Y-104730179D01*
X49316682Y-103782782D01*
X49336684Y-103714661D01*
X49377315Y-103675064D01*
X49484499Y-103610023D01*
X49553798Y-103549889D01*
X49654594Y-103462423D01*
X49654596Y-103462421D01*
X49658627Y-103458923D01*
X49692698Y-103417370D01*
X49801422Y-103284773D01*
X49801426Y-103284767D01*
X49804806Y-103280645D01*
X49918857Y-103080286D01*
X49997519Y-102863575D01*
X50020205Y-102738120D01*
X50037805Y-102640792D01*
X50037806Y-102640785D01*
X50038543Y-102636708D01*
X50039682Y-102612556D01*
X50039682Y-101450510D01*
X50025102Y-101278680D01*
X50023764Y-101273525D01*
X50023763Y-101273519D01*
X49968525Y-101060697D01*
X49968524Y-101060693D01*
X49967183Y-101055528D01*
X49918858Y-100948250D01*
X49909117Y-100877925D01*
X49938942Y-100813497D01*
X49998866Y-100775422D01*
X50033740Y-100770500D01*
X51182000Y-100770500D01*
X51250121Y-100790502D01*
X51296614Y-100844158D01*
X51308000Y-100896500D01*
X51308000Y-110364000D01*
X51287998Y-110432121D01*
X51234342Y-110478614D01*
X51182000Y-110490000D01*
X45792682Y-110490000D01*
X45724561Y-110469998D01*
X45678068Y-110416342D01*
X45666682Y-110364000D01*
X45666682Y-108267900D01*
X45686684Y-108199779D01*
X45740340Y-108153286D01*
X45792682Y-108141900D01*
X46129316Y-108141900D01*
X46191498Y-108135145D01*
X46198898Y-108132371D01*
X46203124Y-108131366D01*
X46261421Y-108131366D01*
X46278828Y-108135505D01*
X46329696Y-108141031D01*
X46336510Y-108141400D01*
X46363067Y-108141400D01*
X46378306Y-108136925D01*
X46379511Y-108135535D01*
X46381182Y-108127852D01*
X46381182Y-108107100D01*
X46401184Y-108038979D01*
X46431618Y-108006273D01*
X46437260Y-108002045D01*
X46437263Y-108002042D01*
X46444443Y-107996661D01*
X46449824Y-107989481D01*
X46449827Y-107989478D01*
X46526411Y-107887291D01*
X46531797Y-107880105D01*
X46582927Y-107743716D01*
X46589682Y-107681534D01*
X46589682Y-105335266D01*
X46582927Y-105273084D01*
X46531797Y-105136695D01*
X46450092Y-105027676D01*
X46449827Y-105027322D01*
X46449824Y-105027319D01*
X46444443Y-105020139D01*
X46437263Y-105014758D01*
X46437260Y-105014755D01*
X46431618Y-105010527D01*
X46389103Y-104953669D01*
X46381182Y-104909700D01*
X46381182Y-104893516D01*
X46376707Y-104878277D01*
X46375317Y-104877072D01*
X46367634Y-104875401D01*
X46336513Y-104875401D01*
X46329692Y-104875771D01*
X46278833Y-104881295D01*
X46261418Y-104885435D01*
X46203124Y-104885434D01*
X46198898Y-104884429D01*
X46191498Y-104881655D01*
X46129316Y-104874900D01*
X45533048Y-104874900D01*
X45470866Y-104881655D01*
X45463467Y-104884429D01*
X45460328Y-104885175D01*
X45402036Y-104885175D01*
X45398897Y-104884429D01*
X45391498Y-104881655D01*
X45329316Y-104874900D01*
X44733048Y-104874900D01*
X44670866Y-104881655D01*
X44663467Y-104884429D01*
X44660328Y-104885175D01*
X44602036Y-104885175D01*
X44598897Y-104884429D01*
X44591498Y-104881655D01*
X44529316Y-104874900D01*
X43933048Y-104874900D01*
X43870866Y-104881655D01*
X43863467Y-104884429D01*
X43860328Y-104885175D01*
X43802036Y-104885175D01*
X43798897Y-104884429D01*
X43791498Y-104881655D01*
X43729316Y-104874900D01*
X43133048Y-104874900D01*
X43070866Y-104881655D01*
X42934477Y-104932785D01*
X42817921Y-105020139D01*
X42730567Y-105136695D01*
X42727415Y-105145103D01*
X42709667Y-105192445D01*
X42667025Y-105249209D01*
X42600463Y-105273909D01*
X42531115Y-105258701D01*
X42487166Y-105218583D01*
X42443741Y-105154081D01*
X42435177Y-105145103D01*
X42323156Y-105027676D01*
X42284606Y-104987265D01*
X42239452Y-104953669D01*
X42147741Y-104885434D01*
X42099640Y-104849646D01*
X42094889Y-104847230D01*
X42094885Y-104847228D01*
X42085577Y-104842496D01*
X42033919Y-104793793D01*
X42016682Y-104730179D01*
X42016682Y-103782782D01*
X42036684Y-103714661D01*
X42077315Y-103675064D01*
X42184499Y-103610023D01*
X42253798Y-103549889D01*
X42354594Y-103462423D01*
X42354596Y-103462421D01*
X42358627Y-103458923D01*
X42392698Y-103417370D01*
X42501422Y-103284773D01*
X42501426Y-103284767D01*
X42504806Y-103280645D01*
X42618857Y-103080286D01*
X42697519Y-102863575D01*
X42720205Y-102738120D01*
X42737805Y-102640792D01*
X42737806Y-102640785D01*
X42738543Y-102636708D01*
X42739682Y-102612556D01*
X42739682Y-101450510D01*
X42725102Y-101278680D01*
X42723764Y-101273525D01*
X42723763Y-101273519D01*
X42668525Y-101060697D01*
X42668524Y-101060693D01*
X42667183Y-101055528D01*
X42618858Y-100948250D01*
X42609117Y-100877925D01*
X42638942Y-100813497D01*
X42698866Y-100775422D01*
X42733740Y-100770500D01*
X47323987Y-100770500D01*
X47392108Y-100790502D01*
G37*
%TD.AperFunction*%
%TD*%
%TA.AperFunction,Conductor*%
%TO.N,GND*%
G36*
X52140371Y-133499252D02*
G01*
X52186864Y-133552908D01*
X52198250Y-133605250D01*
X52198250Y-135271767D01*
X52196018Y-135295376D01*
X52195948Y-135295741D01*
X52195948Y-135295746D01*
X52194463Y-135303529D01*
X52198001Y-135359763D01*
X52198250Y-135367675D01*
X52198250Y-135383733D01*
X52198747Y-135387667D01*
X52198747Y-135387668D01*
X52200263Y-135399673D01*
X52201007Y-135407549D01*
X52202047Y-135424075D01*
X52204545Y-135463777D01*
X52206994Y-135471315D01*
X52206995Y-135471319D01*
X52207109Y-135471670D01*
X52212281Y-135494806D01*
X52212329Y-135495185D01*
X52212330Y-135495190D01*
X52213323Y-135503049D01*
X52216239Y-135510414D01*
X52216240Y-135510418D01*
X52234070Y-135555450D01*
X52236751Y-135562898D01*
X52254162Y-135616483D01*
X52258405Y-135623170D01*
X52258407Y-135623173D01*
X52258610Y-135623492D01*
X52269376Y-135644622D01*
X52272431Y-135652338D01*
X52289715Y-135676127D01*
X52305553Y-135697927D01*
X52310001Y-135704473D01*
X52335945Y-135745354D01*
X52335948Y-135745357D01*
X52340197Y-135752053D01*
X52346244Y-135757731D01*
X52361932Y-135775526D01*
X52366808Y-135782237D01*
X52410224Y-135818154D01*
X52416158Y-135823386D01*
X52436082Y-135842095D01*
X52457244Y-135861967D01*
X52464188Y-135865785D01*
X52464190Y-135865786D01*
X52464518Y-135865966D01*
X52484129Y-135879294D01*
X52484412Y-135879528D01*
X52484416Y-135879531D01*
X52490526Y-135884585D01*
X52526891Y-135901697D01*
X52541514Y-135908578D01*
X52548546Y-135912160D01*
X52597947Y-135939319D01*
X52605621Y-135941289D01*
X52605623Y-135941290D01*
X52605826Y-135941342D01*
X52605985Y-135941383D01*
X52628298Y-135949416D01*
X52628634Y-135949574D01*
X52628637Y-135949575D01*
X52635809Y-135952950D01*
X52643594Y-135954435D01*
X52643597Y-135954436D01*
X52691162Y-135963509D01*
X52698887Y-135965236D01*
X52722066Y-135971187D01*
X52753468Y-135979250D01*
X52761767Y-135979250D01*
X52785376Y-135981482D01*
X52785741Y-135981552D01*
X52785746Y-135981552D01*
X52793529Y-135983037D01*
X52849764Y-135979499D01*
X52857675Y-135979250D01*
X54771748Y-135979250D01*
X54839869Y-135999252D01*
X54886362Y-136052908D01*
X54897748Y-136105250D01*
X54897748Y-136141884D01*
X54904503Y-136204066D01*
X54955633Y-136340455D01*
X54961018Y-136347640D01*
X54961019Y-136347642D01*
X54965325Y-136353387D01*
X54990174Y-136419893D01*
X54990500Y-136428953D01*
X54990500Y-136967697D01*
X54970498Y-137035818D01*
X54958136Y-137052006D01*
X54886960Y-137131056D01*
X54883659Y-137136774D01*
X54796076Y-137288472D01*
X54791473Y-137296444D01*
X54732458Y-137478072D01*
X54731768Y-137484633D01*
X54731768Y-137484635D01*
X54718907Y-137606998D01*
X54712496Y-137668000D01*
X54713186Y-137674565D01*
X54727894Y-137814500D01*
X54732458Y-137857928D01*
X54791473Y-138039556D01*
X54886960Y-138204944D01*
X54891378Y-138209851D01*
X54891379Y-138209852D01*
X54978600Y-138306721D01*
X55014747Y-138346866D01*
X55169248Y-138459118D01*
X55175276Y-138461802D01*
X55175278Y-138461803D01*
X55247756Y-138494072D01*
X55343712Y-138536794D01*
X55437112Y-138556647D01*
X55524056Y-138575128D01*
X55524061Y-138575128D01*
X55530513Y-138576500D01*
X55721487Y-138576500D01*
X55727939Y-138575128D01*
X55727944Y-138575128D01*
X55814888Y-138556647D01*
X55908288Y-138536794D01*
X56004244Y-138494072D01*
X56076722Y-138461803D01*
X56076724Y-138461802D01*
X56082752Y-138459118D01*
X56237253Y-138346866D01*
X56273400Y-138306721D01*
X56360621Y-138209852D01*
X56360622Y-138209851D01*
X56365040Y-138204944D01*
X56460527Y-138039556D01*
X56519542Y-137857928D01*
X56524107Y-137814500D01*
X56538814Y-137674565D01*
X56539504Y-137668000D01*
X56533093Y-137606998D01*
X56520232Y-137484635D01*
X56520232Y-137484633D01*
X56519542Y-137478072D01*
X56460527Y-137296444D01*
X56455925Y-137288472D01*
X56368341Y-137136774D01*
X56365040Y-137131056D01*
X56293864Y-137052007D01*
X56263146Y-136988000D01*
X56261500Y-136967697D01*
X56261500Y-136563513D01*
X56281502Y-136495392D01*
X56306146Y-136468909D01*
X56305979Y-136468742D01*
X56310612Y-136464109D01*
X56311935Y-136462688D01*
X56319509Y-136457011D01*
X56380422Y-136375735D01*
X56437281Y-136333220D01*
X56508100Y-136328194D01*
X56570393Y-136362254D01*
X56582073Y-136375734D01*
X56642987Y-136457011D01*
X56650167Y-136462392D01*
X56650168Y-136462393D01*
X56684813Y-136488358D01*
X56727328Y-136545217D01*
X56732661Y-136574824D01*
X56739723Y-136598873D01*
X56741113Y-136600078D01*
X56748796Y-136601749D01*
X56800917Y-136601749D01*
X56807738Y-136601379D01*
X56866455Y-136595002D01*
X56866753Y-136597748D01*
X56895694Y-136597690D01*
X56895932Y-136595495D01*
X56950115Y-136601381D01*
X56958114Y-136602250D01*
X57604382Y-136602250D01*
X57612382Y-136601381D01*
X57666564Y-136595495D01*
X57666828Y-136597924D01*
X57695668Y-136597924D01*
X57695932Y-136595495D01*
X57750115Y-136601381D01*
X57758114Y-136602250D01*
X58404382Y-136602250D01*
X58412382Y-136601381D01*
X58466564Y-136595495D01*
X58466828Y-136597924D01*
X58495668Y-136597924D01*
X58495932Y-136595495D01*
X58550115Y-136601381D01*
X58558114Y-136602250D01*
X59204382Y-136602250D01*
X59212382Y-136601381D01*
X59266564Y-136595495D01*
X59266828Y-136597924D01*
X59295668Y-136597924D01*
X59295932Y-136595495D01*
X59350115Y-136601381D01*
X59358114Y-136602250D01*
X60004382Y-136602250D01*
X60012382Y-136601381D01*
X60066564Y-136595495D01*
X60066828Y-136597924D01*
X60095668Y-136597924D01*
X60095932Y-136595495D01*
X60150115Y-136601381D01*
X60158114Y-136602250D01*
X60804382Y-136602250D01*
X60812382Y-136601381D01*
X60866564Y-136595495D01*
X60866828Y-136597924D01*
X60895668Y-136597924D01*
X60895932Y-136595495D01*
X60950115Y-136601381D01*
X60958114Y-136602250D01*
X61604382Y-136602250D01*
X61612382Y-136601381D01*
X61666564Y-136595495D01*
X61666828Y-136597924D01*
X61695668Y-136597924D01*
X61695932Y-136595495D01*
X61750115Y-136601381D01*
X61758114Y-136602250D01*
X62404382Y-136602250D01*
X62412382Y-136601381D01*
X62466564Y-136595495D01*
X62466796Y-136597634D01*
X62495760Y-136597584D01*
X62496041Y-136595002D01*
X62554762Y-136601381D01*
X62561576Y-136601750D01*
X62609133Y-136601750D01*
X62624372Y-136597275D01*
X62625577Y-136595885D01*
X62630127Y-136574967D01*
X62631345Y-136575232D01*
X62647250Y-136521063D01*
X62677683Y-136488358D01*
X62712328Y-136462393D01*
X62712329Y-136462392D01*
X62719509Y-136457011D01*
X62780422Y-136375735D01*
X62837281Y-136333220D01*
X62908100Y-136328194D01*
X62970393Y-136362254D01*
X62982073Y-136375734D01*
X63042987Y-136457011D01*
X63050167Y-136462392D01*
X63050168Y-136462393D01*
X63084813Y-136488358D01*
X63127328Y-136545217D01*
X63132661Y-136574824D01*
X63139723Y-136598873D01*
X63141113Y-136600078D01*
X63148796Y-136601749D01*
X63200917Y-136601749D01*
X63207738Y-136601379D01*
X63266455Y-136595002D01*
X63266753Y-136597748D01*
X63295694Y-136597690D01*
X63295932Y-136595495D01*
X63350115Y-136601381D01*
X63358114Y-136602250D01*
X64004382Y-136602250D01*
X64066564Y-136595495D01*
X64202953Y-136544365D01*
X64319509Y-136457011D01*
X64406863Y-136340455D01*
X64457993Y-136204066D01*
X64464748Y-136141884D01*
X64464748Y-136138464D01*
X64464844Y-136136691D01*
X64488498Y-136069751D01*
X64544588Y-136026225D01*
X64590660Y-136017500D01*
X64825601Y-136017500D01*
X64893722Y-136037502D01*
X64910908Y-136052109D01*
X64911420Y-136051540D01*
X64916332Y-136055963D01*
X64920747Y-136060866D01*
X64931630Y-136068773D01*
X65036930Y-136145278D01*
X65075248Y-136173118D01*
X65081276Y-136175802D01*
X65081278Y-136175803D01*
X65216704Y-136236098D01*
X65249712Y-136250794D01*
X65342421Y-136270500D01*
X65430056Y-136289128D01*
X65430061Y-136289128D01*
X65436513Y-136290500D01*
X65627487Y-136290500D01*
X65633939Y-136289128D01*
X65633944Y-136289128D01*
X65721579Y-136270500D01*
X65814288Y-136250794D01*
X65847296Y-136236098D01*
X65982722Y-136175803D01*
X65982724Y-136175802D01*
X65988752Y-136173118D01*
X66143253Y-136060866D01*
X66147675Y-136055955D01*
X66266621Y-135923852D01*
X66266622Y-135923851D01*
X66271040Y-135918944D01*
X66315409Y-135842095D01*
X68642001Y-135842095D01*
X68642338Y-135848614D01*
X68652257Y-135944206D01*
X68655149Y-135957600D01*
X68706588Y-136111784D01*
X68712761Y-136124962D01*
X68798063Y-136262807D01*
X68807099Y-136274208D01*
X68921829Y-136388739D01*
X68933240Y-136397751D01*
X69071243Y-136482816D01*
X69084424Y-136488963D01*
X69238710Y-136540138D01*
X69252086Y-136543005D01*
X69346438Y-136552672D01*
X69352854Y-136553000D01*
X69577885Y-136553000D01*
X69593124Y-136548525D01*
X69594329Y-136547135D01*
X69596000Y-136539452D01*
X69596000Y-136534884D01*
X70104000Y-136534884D01*
X70108475Y-136550123D01*
X70109865Y-136551328D01*
X70117548Y-136552999D01*
X70347095Y-136552999D01*
X70353614Y-136552662D01*
X70449206Y-136542743D01*
X70462600Y-136539851D01*
X70616784Y-136488412D01*
X70629962Y-136482239D01*
X70767807Y-136396937D01*
X70779208Y-136387901D01*
X70893739Y-136273171D01*
X70902751Y-136261760D01*
X70987816Y-136123757D01*
X70993963Y-136110576D01*
X71045138Y-135956290D01*
X71048005Y-135942914D01*
X71057672Y-135848562D01*
X71058000Y-135842146D01*
X71058000Y-135804615D01*
X71053525Y-135789376D01*
X71052135Y-135788171D01*
X71044452Y-135786500D01*
X70122115Y-135786500D01*
X70106876Y-135790975D01*
X70105671Y-135792365D01*
X70104000Y-135800048D01*
X70104000Y-136534884D01*
X69596000Y-136534884D01*
X69596000Y-135804615D01*
X69591525Y-135789376D01*
X69590135Y-135788171D01*
X69582452Y-135786500D01*
X68660116Y-135786500D01*
X68644877Y-135790975D01*
X68643672Y-135792365D01*
X68642001Y-135800048D01*
X68642001Y-135842095D01*
X66315409Y-135842095D01*
X66366527Y-135753556D01*
X66425542Y-135571928D01*
X66426888Y-135559127D01*
X66444814Y-135388565D01*
X66445504Y-135382000D01*
X66438088Y-135311440D01*
X66426232Y-135198635D01*
X66426232Y-135198633D01*
X66425542Y-135192072D01*
X66366527Y-135010444D01*
X66271040Y-134845056D01*
X66241727Y-134812500D01*
X66147675Y-134708045D01*
X66147674Y-134708044D01*
X66143253Y-134703134D01*
X66077257Y-134655185D01*
X66033905Y-134598963D01*
X66027830Y-134528227D01*
X66060962Y-134465435D01*
X66122782Y-134430524D01*
X66151320Y-134427250D01*
X66179382Y-134427250D01*
X66241564Y-134420495D01*
X66377953Y-134369365D01*
X66464604Y-134304424D01*
X66531109Y-134279576D01*
X66540168Y-134279250D01*
X68629154Y-134279250D01*
X68697275Y-134299252D01*
X68736297Y-134338946D01*
X68801522Y-134444348D01*
X68806704Y-134449521D01*
X68888463Y-134531138D01*
X68922542Y-134593421D01*
X68917539Y-134664241D01*
X68888618Y-134709329D01*
X68806261Y-134791829D01*
X68797249Y-134803240D01*
X68712184Y-134941243D01*
X68706037Y-134954424D01*
X68654862Y-135108710D01*
X68651995Y-135122086D01*
X68642328Y-135216438D01*
X68642000Y-135222855D01*
X68642000Y-135260385D01*
X68646475Y-135275624D01*
X68647865Y-135276829D01*
X68655548Y-135278500D01*
X71039884Y-135278500D01*
X71055123Y-135274025D01*
X71056328Y-135272635D01*
X71057999Y-135264952D01*
X71057999Y-135222905D01*
X71057662Y-135216386D01*
X71047743Y-135120794D01*
X71044851Y-135107400D01*
X70993412Y-134953216D01*
X70987239Y-134940038D01*
X70901937Y-134802193D01*
X70892901Y-134790792D01*
X70811538Y-134709570D01*
X70777459Y-134647287D01*
X70782462Y-134576467D01*
X70811383Y-134531380D01*
X70894130Y-134448488D01*
X70894134Y-134448483D01*
X70899305Y-134443303D01*
X70936011Y-134383755D01*
X70988783Y-134336262D01*
X71058855Y-134324838D01*
X71123979Y-134353112D01*
X71132366Y-134360776D01*
X72099095Y-135327505D01*
X72133121Y-135389817D01*
X72136000Y-135416600D01*
X72136000Y-145160623D01*
X72115998Y-145228744D01*
X72062342Y-145275237D01*
X72008633Y-145286616D01*
X59024931Y-145145488D01*
X48891312Y-145035340D01*
X48823412Y-145014598D01*
X48777505Y-144960440D01*
X48766688Y-144910687D01*
X48733022Y-141746095D01*
X49350001Y-141746095D01*
X49350338Y-141752614D01*
X49360257Y-141848206D01*
X49363149Y-141861600D01*
X49414588Y-142015784D01*
X49420761Y-142028962D01*
X49506063Y-142166807D01*
X49515099Y-142178208D01*
X49629829Y-142292739D01*
X49641240Y-142301751D01*
X49779243Y-142386816D01*
X49792424Y-142392963D01*
X49946710Y-142444138D01*
X49960086Y-142447005D01*
X50054438Y-142456672D01*
X50060854Y-142457000D01*
X50085885Y-142457000D01*
X50101124Y-142452525D01*
X50102329Y-142451135D01*
X50104000Y-142443452D01*
X50104000Y-141496115D01*
X50099525Y-141480876D01*
X50098135Y-141479671D01*
X50090452Y-141478000D01*
X49368116Y-141478000D01*
X49352877Y-141482475D01*
X49351672Y-141483865D01*
X49350001Y-141491548D01*
X49350001Y-141746095D01*
X48733022Y-141746095D01*
X48724573Y-140951885D01*
X49350000Y-140951885D01*
X49354475Y-140967124D01*
X49355865Y-140968329D01*
X49363548Y-140970000D01*
X50085885Y-140970000D01*
X50101124Y-140965525D01*
X50102329Y-140964135D01*
X50104000Y-140956452D01*
X50104000Y-140009116D01*
X50099525Y-139993877D01*
X50098135Y-139992672D01*
X50090452Y-139991001D01*
X50060905Y-139991001D01*
X50054386Y-139991338D01*
X49958794Y-140001257D01*
X49945400Y-140004149D01*
X49791216Y-140055588D01*
X49778038Y-140061761D01*
X49640193Y-140147063D01*
X49628792Y-140156099D01*
X49514261Y-140270829D01*
X49505249Y-140282240D01*
X49420184Y-140420243D01*
X49414037Y-140433424D01*
X49362862Y-140587710D01*
X49359995Y-140601086D01*
X49350328Y-140695438D01*
X49350000Y-140701855D01*
X49350000Y-140951885D01*
X48724573Y-140951885D01*
X48674137Y-136210840D01*
X48693413Y-136142511D01*
X48746571Y-136095450D01*
X48800130Y-136083500D01*
X50797076Y-136083500D01*
X50865197Y-136103502D01*
X50911690Y-136157158D01*
X50921794Y-136227432D01*
X50890713Y-136293808D01*
X50822960Y-136369056D01*
X50776324Y-136449831D01*
X50735199Y-136521063D01*
X50727473Y-136534444D01*
X50668458Y-136716072D01*
X50648496Y-136906000D01*
X50649186Y-136912565D01*
X50663824Y-137051834D01*
X50668458Y-137095928D01*
X50727473Y-137277556D01*
X50730776Y-137283278D01*
X50730777Y-137283279D01*
X50752789Y-137321405D01*
X50822960Y-137442944D01*
X50827378Y-137447851D01*
X50827379Y-137447852D01*
X50865531Y-137490224D01*
X50950747Y-137584866D01*
X51000657Y-137621128D01*
X51074207Y-137674565D01*
X51105248Y-137697118D01*
X51111276Y-137699802D01*
X51111278Y-137699803D01*
X51273681Y-137772109D01*
X51279712Y-137774794D01*
X51370445Y-137794080D01*
X51460056Y-137813128D01*
X51460061Y-137813128D01*
X51466513Y-137814500D01*
X51496500Y-137814500D01*
X51564621Y-137834502D01*
X51611114Y-137888158D01*
X51622500Y-137940500D01*
X51622500Y-140025339D01*
X51602498Y-140093460D01*
X51562804Y-140132482D01*
X51533652Y-140150522D01*
X51408695Y-140275697D01*
X51405898Y-140280235D01*
X51348647Y-140320824D01*
X51277724Y-140324054D01*
X51216313Y-140288428D01*
X51208938Y-140279932D01*
X51200902Y-140269793D01*
X51086171Y-140155261D01*
X51074760Y-140146249D01*
X50936757Y-140061184D01*
X50923576Y-140055037D01*
X50769290Y-140003862D01*
X50755914Y-140000995D01*
X50661562Y-139991328D01*
X50655145Y-139991000D01*
X50630115Y-139991000D01*
X50614876Y-139995475D01*
X50613671Y-139996865D01*
X50612000Y-140004548D01*
X50612000Y-142438884D01*
X50616475Y-142454123D01*
X50617865Y-142455328D01*
X50625548Y-142456999D01*
X50655095Y-142456999D01*
X50661614Y-142456662D01*
X50757206Y-142446743D01*
X50770600Y-142443851D01*
X50924784Y-142392412D01*
X50937962Y-142386239D01*
X51075807Y-142300937D01*
X51087208Y-142291901D01*
X51201738Y-142177172D01*
X51208794Y-142168238D01*
X51266712Y-142127177D01*
X51337635Y-142123947D01*
X51399046Y-142159574D01*
X51405846Y-142167407D01*
X51409522Y-142173348D01*
X51534697Y-142298305D01*
X51540927Y-142302145D01*
X51540928Y-142302146D01*
X51678288Y-142386816D01*
X51685262Y-142391115D01*
X51765005Y-142417564D01*
X51846611Y-142444632D01*
X51846613Y-142444632D01*
X51853139Y-142446797D01*
X51859975Y-142447497D01*
X51859978Y-142447498D01*
X51903031Y-142451909D01*
X51957600Y-142457500D01*
X52558400Y-142457500D01*
X52561646Y-142457163D01*
X52561650Y-142457163D01*
X52657308Y-142447238D01*
X52657312Y-142447237D01*
X52664166Y-142446526D01*
X52670702Y-142444345D01*
X52670704Y-142444345D01*
X52802806Y-142400272D01*
X52831946Y-142390550D01*
X52982348Y-142297478D01*
X53107305Y-142172303D01*
X53200115Y-142021738D01*
X53255797Y-141853861D01*
X53266500Y-141749400D01*
X53266500Y-141746095D01*
X61288001Y-141746095D01*
X61288338Y-141752614D01*
X61298257Y-141848206D01*
X61301149Y-141861600D01*
X61352588Y-142015784D01*
X61358761Y-142028962D01*
X61444063Y-142166807D01*
X61453099Y-142178208D01*
X61567829Y-142292739D01*
X61579240Y-142301751D01*
X61717243Y-142386816D01*
X61730424Y-142392963D01*
X61884710Y-142444138D01*
X61898086Y-142447005D01*
X61992438Y-142456672D01*
X61998854Y-142457000D01*
X62023885Y-142457000D01*
X62039124Y-142452525D01*
X62040329Y-142451135D01*
X62042000Y-142443452D01*
X62042000Y-142438884D01*
X62550000Y-142438884D01*
X62554475Y-142454123D01*
X62555865Y-142455328D01*
X62563548Y-142456999D01*
X62593095Y-142456999D01*
X62599614Y-142456662D01*
X62695206Y-142446743D01*
X62708600Y-142443851D01*
X62862784Y-142392412D01*
X62875962Y-142386239D01*
X63013807Y-142300937D01*
X63025208Y-142291901D01*
X63139738Y-142177172D01*
X63146794Y-142168238D01*
X63204712Y-142127177D01*
X63275635Y-142123947D01*
X63337046Y-142159574D01*
X63343846Y-142167407D01*
X63347522Y-142173348D01*
X63472697Y-142298305D01*
X63478927Y-142302145D01*
X63478928Y-142302146D01*
X63616288Y-142386816D01*
X63623262Y-142391115D01*
X63703005Y-142417564D01*
X63784611Y-142444632D01*
X63784613Y-142444632D01*
X63791139Y-142446797D01*
X63797975Y-142447497D01*
X63797978Y-142447498D01*
X63841031Y-142451909D01*
X63895600Y-142457500D01*
X64496400Y-142457500D01*
X64499646Y-142457163D01*
X64499650Y-142457163D01*
X64595308Y-142447238D01*
X64595312Y-142447237D01*
X64602166Y-142446526D01*
X64608702Y-142444345D01*
X64608704Y-142444345D01*
X64740806Y-142400272D01*
X64769946Y-142390550D01*
X64920348Y-142297478D01*
X65045305Y-142172303D01*
X65138115Y-142021738D01*
X65193797Y-141853861D01*
X65204500Y-141749400D01*
X65204500Y-140698600D01*
X65204163Y-140695350D01*
X65194238Y-140599692D01*
X65194237Y-140599688D01*
X65193526Y-140592834D01*
X65137550Y-140425054D01*
X65044478Y-140274652D01*
X64919303Y-140149695D01*
X64913069Y-140145852D01*
X64891383Y-140132484D01*
X64843890Y-140079711D01*
X64831500Y-140025225D01*
X64831500Y-139545313D01*
X64851502Y-139477192D01*
X64905158Y-139430699D01*
X64975432Y-139420595D01*
X65031558Y-139443376D01*
X65075248Y-139475118D01*
X65081276Y-139477802D01*
X65081278Y-139477803D01*
X65232909Y-139545313D01*
X65249712Y-139552794D01*
X65343113Y-139572647D01*
X65430056Y-139591128D01*
X65430061Y-139591128D01*
X65436513Y-139592500D01*
X65627487Y-139592500D01*
X65633939Y-139591128D01*
X65633944Y-139591128D01*
X65720887Y-139572647D01*
X65814288Y-139552794D01*
X65831091Y-139545313D01*
X65982722Y-139477803D01*
X65982724Y-139477802D01*
X65988752Y-139475118D01*
X66143253Y-139362866D01*
X66271040Y-139220944D01*
X66366527Y-139055556D01*
X66425542Y-138873928D01*
X66430107Y-138830500D01*
X66444814Y-138690565D01*
X66445504Y-138684000D01*
X66444814Y-138677435D01*
X66426232Y-138500635D01*
X66426232Y-138500633D01*
X66425542Y-138494072D01*
X66366527Y-138312444D01*
X66271040Y-138147056D01*
X66245064Y-138118206D01*
X66147675Y-138010045D01*
X66147674Y-138010044D01*
X66143253Y-138005134D01*
X66028829Y-137922000D01*
X65994094Y-137896763D01*
X65994093Y-137896762D01*
X65988752Y-137892882D01*
X65982724Y-137890198D01*
X65982722Y-137890197D01*
X65820319Y-137817891D01*
X65820318Y-137817891D01*
X65814288Y-137815206D01*
X65714899Y-137794080D01*
X65633944Y-137776872D01*
X65633939Y-137776872D01*
X65627487Y-137775500D01*
X65436513Y-137775500D01*
X65430061Y-137776872D01*
X65430056Y-137776872D01*
X65349101Y-137794080D01*
X65249712Y-137815206D01*
X65243682Y-137817891D01*
X65243681Y-137817891D01*
X65081278Y-137890197D01*
X65081276Y-137890198D01*
X65075248Y-137892882D01*
X65069907Y-137896762D01*
X65069906Y-137896763D01*
X65027025Y-137927918D01*
X64960157Y-137951777D01*
X64891006Y-137935696D01*
X64841525Y-137884782D01*
X64827213Y-137833892D01*
X64825703Y-137809884D01*
X64825703Y-137809882D01*
X64825205Y-137801973D01*
X64822756Y-137794435D01*
X64822755Y-137794431D01*
X64822641Y-137794080D01*
X64817469Y-137770944D01*
X64817421Y-137770565D01*
X64817420Y-137770560D01*
X64816427Y-137762701D01*
X64813511Y-137755336D01*
X64813510Y-137755332D01*
X64795680Y-137710300D01*
X64792998Y-137702850D01*
X64778038Y-137656806D01*
X64778037Y-137656803D01*
X64775588Y-137649267D01*
X64771345Y-137642580D01*
X64771343Y-137642577D01*
X64771140Y-137642258D01*
X64760374Y-137621128D01*
X64760237Y-137620783D01*
X64757319Y-137613412D01*
X64724196Y-137567821D01*
X64719749Y-137561277D01*
X64693805Y-137520396D01*
X64693802Y-137520393D01*
X64689553Y-137513697D01*
X64683504Y-137508017D01*
X64667818Y-137490224D01*
X64667602Y-137489927D01*
X64662942Y-137483513D01*
X64619523Y-137447594D01*
X64613592Y-137442364D01*
X64578284Y-137409209D01*
X64572506Y-137403783D01*
X64565562Y-137399965D01*
X64565560Y-137399964D01*
X64565232Y-137399784D01*
X64545621Y-137386456D01*
X64545338Y-137386222D01*
X64545334Y-137386219D01*
X64539224Y-137381165D01*
X64488236Y-137357172D01*
X64481204Y-137353590D01*
X64431803Y-137326431D01*
X64424129Y-137324461D01*
X64424127Y-137324460D01*
X64423924Y-137324408D01*
X64423765Y-137324367D01*
X64401452Y-137316334D01*
X64401116Y-137316176D01*
X64401113Y-137316175D01*
X64393941Y-137312800D01*
X64386156Y-137311315D01*
X64386153Y-137311314D01*
X64338588Y-137302241D01*
X64330863Y-137300514D01*
X64292721Y-137290721D01*
X64276282Y-137286500D01*
X64267983Y-137286500D01*
X64244374Y-137284268D01*
X64244009Y-137284198D01*
X64244004Y-137284198D01*
X64236221Y-137282713D01*
X64212399Y-137284212D01*
X64143157Y-137268528D01*
X64120178Y-137252098D01*
X64115668Y-137248037D01*
X64111253Y-137243134D01*
X63956752Y-137130882D01*
X63950724Y-137128198D01*
X63950722Y-137128197D01*
X63788319Y-137055891D01*
X63788318Y-137055891D01*
X63782288Y-137053206D01*
X63688887Y-137033353D01*
X63601944Y-137014872D01*
X63601939Y-137014872D01*
X63595487Y-137013500D01*
X63404513Y-137013500D01*
X63398061Y-137014872D01*
X63398056Y-137014872D01*
X63311113Y-137033353D01*
X63217712Y-137053206D01*
X63211682Y-137055891D01*
X63211681Y-137055891D01*
X63049278Y-137128197D01*
X63049276Y-137128198D01*
X63043248Y-137130882D01*
X62888747Y-137243134D01*
X62884326Y-137248044D01*
X62884325Y-137248045D01*
X62818272Y-137321405D01*
X62760960Y-137385056D01*
X62665473Y-137550444D01*
X62606458Y-137732072D01*
X62605768Y-137738633D01*
X62605768Y-137738635D01*
X62597720Y-137815206D01*
X62586496Y-137922000D01*
X62587186Y-137928565D01*
X62599792Y-138048500D01*
X62606458Y-138111928D01*
X62665473Y-138293556D01*
X62760960Y-138458944D01*
X62765378Y-138463851D01*
X62765379Y-138463852D01*
X62792589Y-138494072D01*
X62888747Y-138600866D01*
X62987843Y-138672864D01*
X63012207Y-138690565D01*
X63043248Y-138713118D01*
X63049276Y-138715802D01*
X63049278Y-138715803D01*
X63077572Y-138728400D01*
X63217712Y-138790794D01*
X63311112Y-138810647D01*
X63398056Y-138829128D01*
X63398061Y-138829128D01*
X63404513Y-138830500D01*
X63434500Y-138830500D01*
X63502621Y-138850502D01*
X63549114Y-138904158D01*
X63560500Y-138956500D01*
X63560500Y-140025339D01*
X63540498Y-140093460D01*
X63500804Y-140132482D01*
X63471652Y-140150522D01*
X63346695Y-140275697D01*
X63343898Y-140280235D01*
X63286647Y-140320824D01*
X63215724Y-140324054D01*
X63154313Y-140288428D01*
X63146938Y-140279932D01*
X63138902Y-140269793D01*
X63024171Y-140155261D01*
X63012760Y-140146249D01*
X62874757Y-140061184D01*
X62861576Y-140055037D01*
X62707290Y-140003862D01*
X62693914Y-140000995D01*
X62599562Y-139991328D01*
X62593145Y-139991000D01*
X62568115Y-139991000D01*
X62552876Y-139995475D01*
X62551671Y-139996865D01*
X62550000Y-140004548D01*
X62550000Y-142438884D01*
X62042000Y-142438884D01*
X62042000Y-141496115D01*
X62037525Y-141480876D01*
X62036135Y-141479671D01*
X62028452Y-141478000D01*
X61306116Y-141478000D01*
X61290877Y-141482475D01*
X61289672Y-141483865D01*
X61288001Y-141491548D01*
X61288001Y-141746095D01*
X53266500Y-141746095D01*
X53266500Y-140951885D01*
X61288000Y-140951885D01*
X61292475Y-140967124D01*
X61293865Y-140968329D01*
X61301548Y-140970000D01*
X62023885Y-140970000D01*
X62039124Y-140965525D01*
X62040329Y-140964135D01*
X62042000Y-140956452D01*
X62042000Y-140009116D01*
X62037525Y-139993877D01*
X62036135Y-139992672D01*
X62028452Y-139991001D01*
X61998905Y-139991001D01*
X61992386Y-139991338D01*
X61896794Y-140001257D01*
X61883400Y-140004149D01*
X61729216Y-140055588D01*
X61716038Y-140061761D01*
X61578193Y-140147063D01*
X61566792Y-140156099D01*
X61452261Y-140270829D01*
X61443249Y-140282240D01*
X61358184Y-140420243D01*
X61352037Y-140433424D01*
X61300862Y-140587710D01*
X61297995Y-140601086D01*
X61288328Y-140695438D01*
X61288000Y-140701855D01*
X61288000Y-140951885D01*
X53266500Y-140951885D01*
X53266500Y-140698600D01*
X53266163Y-140695350D01*
X53256238Y-140599692D01*
X53256237Y-140599688D01*
X53255526Y-140592834D01*
X53199550Y-140425054D01*
X53106478Y-140274652D01*
X52981303Y-140149695D01*
X52975069Y-140145852D01*
X52953383Y-140132484D01*
X52905890Y-140079711D01*
X52893500Y-140025225D01*
X52893500Y-136977983D01*
X52895732Y-136954374D01*
X52895802Y-136954009D01*
X52895802Y-136954004D01*
X52897287Y-136946221D01*
X52893749Y-136889986D01*
X52893500Y-136882075D01*
X52893500Y-136866017D01*
X52893003Y-136862082D01*
X52891487Y-136850077D01*
X52890743Y-136842201D01*
X52887703Y-136793884D01*
X52887703Y-136793882D01*
X52887205Y-136785973D01*
X52884756Y-136778435D01*
X52884755Y-136778431D01*
X52884641Y-136778080D01*
X52879469Y-136754944D01*
X52879421Y-136754565D01*
X52879420Y-136754560D01*
X52878427Y-136746701D01*
X52875511Y-136739336D01*
X52875510Y-136739332D01*
X52857680Y-136694300D01*
X52854998Y-136686850D01*
X52840038Y-136640806D01*
X52840037Y-136640803D01*
X52837588Y-136633267D01*
X52833345Y-136626580D01*
X52833343Y-136626577D01*
X52833140Y-136626258D01*
X52822374Y-136605128D01*
X52822237Y-136604783D01*
X52819319Y-136597412D01*
X52786196Y-136551821D01*
X52781749Y-136545277D01*
X52755805Y-136504396D01*
X52755802Y-136504393D01*
X52751553Y-136497697D01*
X52745504Y-136492017D01*
X52729818Y-136474224D01*
X52729602Y-136473927D01*
X52724942Y-136467513D01*
X52681523Y-136431594D01*
X52675592Y-136426364D01*
X52640284Y-136393209D01*
X52634506Y-136387783D01*
X52627562Y-136383965D01*
X52627560Y-136383964D01*
X52627232Y-136383784D01*
X52607621Y-136370456D01*
X52607338Y-136370222D01*
X52607334Y-136370219D01*
X52601224Y-136365165D01*
X52550236Y-136341172D01*
X52543204Y-136337590D01*
X52493803Y-136310431D01*
X52486129Y-136308461D01*
X52486127Y-136308460D01*
X52485924Y-136308408D01*
X52485765Y-136308367D01*
X52463452Y-136300334D01*
X52463116Y-136300176D01*
X52463113Y-136300175D01*
X52455941Y-136296800D01*
X52448156Y-136295315D01*
X52448153Y-136295314D01*
X52400588Y-136286241D01*
X52392863Y-136284514D01*
X52369684Y-136278563D01*
X52338282Y-136270500D01*
X52329983Y-136270500D01*
X52306374Y-136268268D01*
X52306009Y-136268198D01*
X52306004Y-136268198D01*
X52298221Y-136266713D01*
X52274399Y-136268212D01*
X52205157Y-136252528D01*
X52182178Y-136236098D01*
X52177668Y-136232037D01*
X52173253Y-136227134D01*
X52076940Y-136157158D01*
X52024094Y-136118763D01*
X52024093Y-136118762D01*
X52018752Y-136114882D01*
X52012724Y-136112198D01*
X52012722Y-136112197D01*
X51850319Y-136039891D01*
X51850318Y-136039891D01*
X51844288Y-136037206D01*
X51661093Y-135998266D01*
X51598621Y-135964539D01*
X51564299Y-135902389D01*
X51569027Y-135831550D01*
X51584563Y-135804520D01*
X51583784Y-135804026D01*
X51588031Y-135797334D01*
X51593085Y-135791224D01*
X51611517Y-135752053D01*
X51617078Y-135740236D01*
X51620660Y-135733204D01*
X51647819Y-135683803D01*
X51649883Y-135675765D01*
X51657916Y-135653452D01*
X51658074Y-135653116D01*
X51658075Y-135653113D01*
X51661450Y-135645941D01*
X51663815Y-135633547D01*
X51672009Y-135590588D01*
X51673736Y-135582863D01*
X51685778Y-135535961D01*
X51687750Y-135528282D01*
X51687750Y-135519983D01*
X51689982Y-135496374D01*
X51690052Y-135496009D01*
X51690052Y-135496004D01*
X51691537Y-135488221D01*
X51687999Y-135431986D01*
X51687750Y-135424075D01*
X51687750Y-133605250D01*
X51707752Y-133537129D01*
X51761408Y-133490636D01*
X51813750Y-133479250D01*
X52072250Y-133479250D01*
X52140371Y-133499252D01*
G37*
%TD.AperFunction*%
%TA.AperFunction,Conductor*%
G36*
X72078121Y-121178002D02*
G01*
X72124614Y-121231658D01*
X72136000Y-121284000D01*
X72136000Y-124005676D01*
X72115998Y-124073797D01*
X72062342Y-124120290D01*
X71992068Y-124130394D01*
X71958751Y-124120783D01*
X71916319Y-124101891D01*
X71916318Y-124101891D01*
X71910288Y-124099206D01*
X71790749Y-124073797D01*
X71729944Y-124060872D01*
X71729939Y-124060872D01*
X71723487Y-124059500D01*
X71532513Y-124059500D01*
X71526061Y-124060872D01*
X71526056Y-124060872D01*
X71465251Y-124073797D01*
X71345712Y-124099206D01*
X71339682Y-124101891D01*
X71339681Y-124101891D01*
X71177278Y-124174197D01*
X71177276Y-124174198D01*
X71171248Y-124176882D01*
X71165907Y-124180762D01*
X71165906Y-124180763D01*
X71109788Y-124221535D01*
X71042920Y-124245394D01*
X70973768Y-124229313D01*
X70932187Y-124189365D01*
X70931875Y-124189612D01*
X70930057Y-124187318D01*
X70928584Y-124185902D01*
X70923478Y-124177652D01*
X70798303Y-124052695D01*
X70793765Y-124049898D01*
X70753176Y-123992647D01*
X70749946Y-123921724D01*
X70785572Y-123860313D01*
X70794068Y-123852938D01*
X70804207Y-123844902D01*
X70918739Y-123730171D01*
X70927751Y-123718760D01*
X71012816Y-123580757D01*
X71018963Y-123567576D01*
X71070138Y-123413290D01*
X71073005Y-123399914D01*
X71082672Y-123305562D01*
X71083000Y-123299146D01*
X71083000Y-123274115D01*
X71078525Y-123258876D01*
X71077135Y-123257671D01*
X71069452Y-123256000D01*
X68635116Y-123256000D01*
X68619877Y-123260475D01*
X68618672Y-123261865D01*
X68617001Y-123269548D01*
X68617001Y-123299095D01*
X68617338Y-123305614D01*
X68627257Y-123401206D01*
X68630149Y-123414600D01*
X68681588Y-123568784D01*
X68687761Y-123581962D01*
X68773063Y-123719807D01*
X68782099Y-123731208D01*
X68896828Y-123845738D01*
X68905762Y-123852794D01*
X68946823Y-123910712D01*
X68950053Y-123981635D01*
X68914426Y-124043046D01*
X68906593Y-124049846D01*
X68900652Y-124053522D01*
X68775695Y-124178697D01*
X68771855Y-124184927D01*
X68771854Y-124184928D01*
X68724712Y-124261407D01*
X68682885Y-124329262D01*
X68627203Y-124497139D01*
X68616500Y-124601600D01*
X68616500Y-125202400D01*
X68616837Y-125205646D01*
X68616837Y-125205650D01*
X68622490Y-125260129D01*
X68627474Y-125308166D01*
X68629655Y-125314702D01*
X68629655Y-125314704D01*
X68646459Y-125365072D01*
X68683450Y-125475946D01*
X68687304Y-125482174D01*
X68687305Y-125482176D01*
X68721720Y-125537789D01*
X68769681Y-125615292D01*
X68770086Y-125615947D01*
X68788924Y-125684399D01*
X68767763Y-125752168D01*
X68713322Y-125797740D01*
X68662942Y-125808250D01*
X66540168Y-125808250D01*
X66472047Y-125788248D01*
X66464603Y-125783076D01*
X66377953Y-125718135D01*
X66241564Y-125667005D01*
X66179382Y-125660250D01*
X64583114Y-125660250D01*
X64520932Y-125667005D01*
X64384543Y-125718135D01*
X64267987Y-125805489D01*
X64262606Y-125812669D01*
X64262605Y-125812670D01*
X64236640Y-125847315D01*
X64179781Y-125889830D01*
X64150174Y-125895163D01*
X64126125Y-125902225D01*
X64124920Y-125903615D01*
X64123249Y-125911298D01*
X64123249Y-125963419D01*
X64123619Y-125970240D01*
X64129996Y-126028957D01*
X64127250Y-126029255D01*
X64127308Y-126058196D01*
X64129503Y-126058434D01*
X64122748Y-126120616D01*
X64122748Y-126766884D01*
X64123117Y-126770281D01*
X64129503Y-126829066D01*
X64127074Y-126829330D01*
X64127074Y-126858170D01*
X64129503Y-126858434D01*
X64122748Y-126920616D01*
X64122748Y-127566884D01*
X64123117Y-127570281D01*
X64129503Y-127629066D01*
X64127074Y-127629330D01*
X64127074Y-127658170D01*
X64129503Y-127658434D01*
X64122748Y-127720616D01*
X64122748Y-128366884D01*
X64123117Y-128370281D01*
X64129503Y-128429066D01*
X64127074Y-128429330D01*
X64127074Y-128458170D01*
X64129503Y-128458434D01*
X64122748Y-128520616D01*
X64122748Y-129166884D01*
X64123117Y-129170281D01*
X64129503Y-129229066D01*
X64127074Y-129229330D01*
X64127074Y-129258170D01*
X64129503Y-129258434D01*
X64122748Y-129320616D01*
X64122748Y-129966884D01*
X64123117Y-129970281D01*
X64129503Y-130029066D01*
X64127074Y-130029330D01*
X64127074Y-130058170D01*
X64129503Y-130058434D01*
X64122748Y-130120616D01*
X64122748Y-130766884D01*
X64123117Y-130770281D01*
X64129503Y-130829066D01*
X64127074Y-130829330D01*
X64127074Y-130858170D01*
X64129503Y-130858434D01*
X64122748Y-130920616D01*
X64122748Y-131566884D01*
X64123117Y-131570281D01*
X64129503Y-131629066D01*
X64127074Y-131629330D01*
X64127074Y-131658170D01*
X64129503Y-131658434D01*
X64122748Y-131720616D01*
X64122748Y-132366884D01*
X64123117Y-132370281D01*
X64129503Y-132429066D01*
X64127074Y-132429330D01*
X64127074Y-132458170D01*
X64129503Y-132458434D01*
X64122748Y-132520616D01*
X64122748Y-133166884D01*
X64123117Y-133170281D01*
X64129503Y-133229066D01*
X64127074Y-133229330D01*
X64127074Y-133258170D01*
X64129503Y-133258434D01*
X64122748Y-133320616D01*
X64122748Y-133959250D01*
X64102746Y-134027371D01*
X64049090Y-134073864D01*
X63996748Y-134085250D01*
X63358114Y-134085250D01*
X63354717Y-134085619D01*
X63318292Y-134089576D01*
X63295932Y-134092005D01*
X63295700Y-134089866D01*
X63266736Y-134089916D01*
X63266455Y-134092498D01*
X63207734Y-134086119D01*
X63200920Y-134085750D01*
X63153363Y-134085750D01*
X63138124Y-134090225D01*
X63136919Y-134091615D01*
X63132369Y-134112533D01*
X63131151Y-134112268D01*
X63115246Y-134166437D01*
X63084813Y-134199142D01*
X63042987Y-134230489D01*
X63037606Y-134237669D01*
X62982074Y-134311765D01*
X62925215Y-134354280D01*
X62854396Y-134359306D01*
X62792103Y-134325246D01*
X62780422Y-134311765D01*
X62724890Y-134237669D01*
X62719509Y-134230489D01*
X62677683Y-134199142D01*
X62635168Y-134142283D01*
X62629835Y-134112676D01*
X62622773Y-134088627D01*
X62621383Y-134087422D01*
X62613700Y-134085751D01*
X62561579Y-134085751D01*
X62554758Y-134086121D01*
X62496041Y-134092498D01*
X62495743Y-134089752D01*
X62466802Y-134089810D01*
X62466564Y-134092005D01*
X62407779Y-134085619D01*
X62404382Y-134085250D01*
X61758114Y-134085250D01*
X61754717Y-134085619D01*
X61718292Y-134089576D01*
X61695932Y-134092005D01*
X61695668Y-134089576D01*
X61666828Y-134089576D01*
X61666564Y-134092005D01*
X61607779Y-134085619D01*
X61604382Y-134085250D01*
X60958114Y-134085250D01*
X60954717Y-134085619D01*
X60918292Y-134089576D01*
X60895932Y-134092005D01*
X60895668Y-134089576D01*
X60866828Y-134089576D01*
X60866564Y-134092005D01*
X60807779Y-134085619D01*
X60804382Y-134085250D01*
X60158114Y-134085250D01*
X60154717Y-134085619D01*
X60118292Y-134089576D01*
X60095932Y-134092005D01*
X60095668Y-134089576D01*
X60066828Y-134089576D01*
X60066564Y-134092005D01*
X60007779Y-134085619D01*
X60004382Y-134085250D01*
X59358114Y-134085250D01*
X59354717Y-134085619D01*
X59318292Y-134089576D01*
X59295932Y-134092005D01*
X59295668Y-134089576D01*
X59266828Y-134089576D01*
X59266564Y-134092005D01*
X59207779Y-134085619D01*
X59204382Y-134085250D01*
X58558114Y-134085250D01*
X58554717Y-134085619D01*
X58518292Y-134089576D01*
X58495932Y-134092005D01*
X58495668Y-134089576D01*
X58466828Y-134089576D01*
X58466564Y-134092005D01*
X58407779Y-134085619D01*
X58404382Y-134085250D01*
X57758114Y-134085250D01*
X57754717Y-134085619D01*
X57718292Y-134089576D01*
X57695932Y-134092005D01*
X57695668Y-134089576D01*
X57666828Y-134089576D01*
X57666564Y-134092005D01*
X57607779Y-134085619D01*
X57604382Y-134085250D01*
X56958114Y-134085250D01*
X56954717Y-134085619D01*
X56918292Y-134089576D01*
X56895932Y-134092005D01*
X56895700Y-134089866D01*
X56866736Y-134089916D01*
X56866455Y-134092498D01*
X56807734Y-134086119D01*
X56800920Y-134085750D01*
X56753363Y-134085750D01*
X56738124Y-134090225D01*
X56736919Y-134091615D01*
X56732369Y-134112533D01*
X56731151Y-134112268D01*
X56715246Y-134166437D01*
X56684813Y-134199142D01*
X56642987Y-134230489D01*
X56637606Y-134237669D01*
X56582074Y-134311765D01*
X56525215Y-134354280D01*
X56454396Y-134359306D01*
X56392103Y-134325246D01*
X56380422Y-134311765D01*
X56324890Y-134237669D01*
X56319509Y-134230489D01*
X56277683Y-134199142D01*
X56235168Y-134142283D01*
X56229835Y-134112676D01*
X56222773Y-134088627D01*
X56221383Y-134087422D01*
X56213700Y-134085751D01*
X56161579Y-134085751D01*
X56154758Y-134086121D01*
X56096041Y-134092498D01*
X56095743Y-134089752D01*
X56066802Y-134089810D01*
X56066564Y-134092005D01*
X56007779Y-134085619D01*
X56004382Y-134085250D01*
X55365748Y-134085250D01*
X55297627Y-134065248D01*
X55251134Y-134011592D01*
X55239748Y-133959250D01*
X55239748Y-133320616D01*
X55232993Y-133258434D01*
X55235422Y-133258170D01*
X55235422Y-133229330D01*
X55232993Y-133229066D01*
X55239379Y-133170281D01*
X55239748Y-133166884D01*
X55239748Y-132520616D01*
X55232993Y-132458434D01*
X55235422Y-132458170D01*
X55235422Y-132429330D01*
X55232993Y-132429066D01*
X55239379Y-132370281D01*
X55239748Y-132366884D01*
X55239748Y-131720616D01*
X55232993Y-131658434D01*
X55235422Y-131658170D01*
X55235422Y-131629330D01*
X55232993Y-131629066D01*
X55239379Y-131570281D01*
X55239748Y-131566884D01*
X55239748Y-130920616D01*
X55232993Y-130858434D01*
X55235132Y-130858202D01*
X55235082Y-130829238D01*
X55232500Y-130828957D01*
X55238879Y-130770236D01*
X55239248Y-130763422D01*
X55239248Y-130715865D01*
X55234773Y-130700626D01*
X55233383Y-130699421D01*
X55212465Y-130694871D01*
X55212730Y-130693653D01*
X55158561Y-130677748D01*
X55125856Y-130647315D01*
X55099891Y-130612670D01*
X55099890Y-130612669D01*
X55094509Y-130605489D01*
X55013233Y-130544576D01*
X54970718Y-130487717D01*
X54965692Y-130416898D01*
X54999752Y-130354605D01*
X55013233Y-130342924D01*
X55087329Y-130287392D01*
X55094509Y-130282011D01*
X55125856Y-130240185D01*
X55182715Y-130197670D01*
X55212322Y-130192337D01*
X55236371Y-130185275D01*
X55237576Y-130183885D01*
X55239247Y-130176202D01*
X55239247Y-130124081D01*
X55238877Y-130117260D01*
X55232500Y-130058543D01*
X55235246Y-130058245D01*
X55235188Y-130029304D01*
X55232993Y-130029066D01*
X55239379Y-129970281D01*
X55239748Y-129966884D01*
X55239748Y-129320616D01*
X55232993Y-129258434D01*
X55235422Y-129258170D01*
X55235422Y-129229330D01*
X55232993Y-129229066D01*
X55239379Y-129170281D01*
X55239748Y-129166884D01*
X55239748Y-128520616D01*
X55232993Y-128458434D01*
X55235422Y-128458170D01*
X55235422Y-128429330D01*
X55232993Y-128429066D01*
X55239379Y-128370281D01*
X55239748Y-128366884D01*
X55239748Y-127720616D01*
X55232993Y-127658434D01*
X55235422Y-127658170D01*
X55235422Y-127629330D01*
X55232993Y-127629066D01*
X55239379Y-127570281D01*
X55239748Y-127566884D01*
X55239748Y-126920616D01*
X55232993Y-126858434D01*
X55235422Y-126858170D01*
X55235422Y-126829330D01*
X55232993Y-126829066D01*
X55239379Y-126770281D01*
X55239748Y-126766884D01*
X55239748Y-126120616D01*
X55232993Y-126058434D01*
X55235422Y-126058170D01*
X55235422Y-126029330D01*
X55232993Y-126029066D01*
X55239379Y-125970281D01*
X55239748Y-125966884D01*
X55239748Y-125328250D01*
X55259750Y-125260129D01*
X55313406Y-125213636D01*
X55365748Y-125202250D01*
X56004382Y-125202250D01*
X56012382Y-125201381D01*
X56066564Y-125195495D01*
X56066828Y-125197924D01*
X56095668Y-125197924D01*
X56095932Y-125195495D01*
X56150115Y-125201381D01*
X56158114Y-125202250D01*
X56804382Y-125202250D01*
X56812382Y-125201381D01*
X56866564Y-125195495D01*
X56866828Y-125197924D01*
X56895668Y-125197924D01*
X56895932Y-125195495D01*
X56950115Y-125201381D01*
X56958114Y-125202250D01*
X57604382Y-125202250D01*
X57612382Y-125201381D01*
X57666564Y-125195495D01*
X57666796Y-125197634D01*
X57695760Y-125197584D01*
X57696041Y-125195002D01*
X57754762Y-125201381D01*
X57761576Y-125201750D01*
X57809133Y-125201750D01*
X57824372Y-125197275D01*
X57825577Y-125195885D01*
X57830127Y-125174967D01*
X57831345Y-125175232D01*
X57847250Y-125121063D01*
X57877683Y-125088358D01*
X57912328Y-125062393D01*
X57912329Y-125062392D01*
X57919509Y-125057011D01*
X57980422Y-124975735D01*
X58037281Y-124933220D01*
X58108100Y-124928194D01*
X58170393Y-124962254D01*
X58182073Y-124975734D01*
X58242987Y-125057011D01*
X58250167Y-125062392D01*
X58250168Y-125062393D01*
X58284813Y-125088358D01*
X58327328Y-125145217D01*
X58332661Y-125174824D01*
X58339723Y-125198873D01*
X58341113Y-125200078D01*
X58348796Y-125201749D01*
X58400917Y-125201749D01*
X58407738Y-125201379D01*
X58466455Y-125195002D01*
X58466753Y-125197748D01*
X58495694Y-125197690D01*
X58495932Y-125195495D01*
X58550115Y-125201381D01*
X58558114Y-125202250D01*
X59204382Y-125202250D01*
X59212382Y-125201381D01*
X59266564Y-125195495D01*
X59266828Y-125197924D01*
X59295668Y-125197924D01*
X59295932Y-125195495D01*
X59350115Y-125201381D01*
X59358114Y-125202250D01*
X60004382Y-125202250D01*
X60012382Y-125201381D01*
X60066564Y-125195495D01*
X60066828Y-125197924D01*
X60095668Y-125197924D01*
X60095932Y-125195495D01*
X60150115Y-125201381D01*
X60158114Y-125202250D01*
X60804382Y-125202250D01*
X60812382Y-125201381D01*
X60866564Y-125195495D01*
X60866828Y-125197924D01*
X60895668Y-125197924D01*
X60895932Y-125195495D01*
X60950115Y-125201381D01*
X60958114Y-125202250D01*
X61604382Y-125202250D01*
X61612382Y-125201381D01*
X61666564Y-125195495D01*
X61666828Y-125197924D01*
X61695668Y-125197924D01*
X61695932Y-125195495D01*
X61750115Y-125201381D01*
X61758114Y-125202250D01*
X62404382Y-125202250D01*
X62412382Y-125201381D01*
X62466564Y-125195495D01*
X62466828Y-125197924D01*
X62495668Y-125197924D01*
X62495932Y-125195495D01*
X62550115Y-125201381D01*
X62558114Y-125202250D01*
X63204382Y-125202250D01*
X63212382Y-125201381D01*
X63266564Y-125195495D01*
X63266828Y-125197924D01*
X63295668Y-125197924D01*
X63295932Y-125195495D01*
X63350115Y-125201381D01*
X63358114Y-125202250D01*
X63997248Y-125202250D01*
X64065369Y-125222252D01*
X64111862Y-125275908D01*
X64123248Y-125328250D01*
X64123248Y-125371635D01*
X64127723Y-125386874D01*
X64129113Y-125388079D01*
X64136796Y-125389750D01*
X65109133Y-125389750D01*
X65124372Y-125385275D01*
X65125577Y-125383885D01*
X65127248Y-125376202D01*
X65127248Y-125371635D01*
X65635248Y-125371635D01*
X65639723Y-125386874D01*
X65641113Y-125388079D01*
X65648796Y-125389750D01*
X66621132Y-125389750D01*
X66636371Y-125385275D01*
X66637576Y-125383885D01*
X66639247Y-125376202D01*
X66639247Y-125324081D01*
X66638877Y-125317260D01*
X66633353Y-125266398D01*
X66629727Y-125251146D01*
X66584572Y-125130696D01*
X66576034Y-125115101D01*
X66499533Y-125013026D01*
X66486972Y-125000465D01*
X66384897Y-124923964D01*
X66369302Y-124915426D01*
X66248854Y-124870272D01*
X66233599Y-124866645D01*
X66182734Y-124861119D01*
X66175920Y-124860750D01*
X65653363Y-124860750D01*
X65638124Y-124865225D01*
X65636919Y-124866615D01*
X65635248Y-124874298D01*
X65635248Y-125371635D01*
X65127248Y-125371635D01*
X65127248Y-124878866D01*
X65122773Y-124863627D01*
X65121383Y-124862422D01*
X65113700Y-124860751D01*
X64590748Y-124860751D01*
X64522627Y-124840749D01*
X64476134Y-124787093D01*
X64464748Y-124734751D01*
X64464748Y-123145616D01*
X64457993Y-123083434D01*
X64406863Y-122947045D01*
X64319509Y-122830489D01*
X64202953Y-122743135D01*
X64167609Y-122729885D01*
X68617000Y-122729885D01*
X68621475Y-122745124D01*
X68622865Y-122746329D01*
X68630548Y-122748000D01*
X69577885Y-122748000D01*
X69593124Y-122743525D01*
X69594329Y-122742135D01*
X69596000Y-122734452D01*
X69596000Y-122729885D01*
X70104000Y-122729885D01*
X70108475Y-122745124D01*
X70109865Y-122746329D01*
X70117548Y-122748000D01*
X71064884Y-122748000D01*
X71080123Y-122743525D01*
X71081328Y-122742135D01*
X71082999Y-122734452D01*
X71082999Y-122704905D01*
X71082662Y-122698386D01*
X71072743Y-122602794D01*
X71069851Y-122589400D01*
X71018412Y-122435216D01*
X71012239Y-122422038D01*
X70926937Y-122284193D01*
X70917901Y-122272792D01*
X70803171Y-122158261D01*
X70791760Y-122149249D01*
X70653757Y-122064184D01*
X70640576Y-122058037D01*
X70486290Y-122006862D01*
X70472914Y-122003995D01*
X70378562Y-121994328D01*
X70372145Y-121994000D01*
X70122115Y-121994000D01*
X70106876Y-121998475D01*
X70105671Y-121999865D01*
X70104000Y-122007548D01*
X70104000Y-122729885D01*
X69596000Y-122729885D01*
X69596000Y-122012116D01*
X69591525Y-121996877D01*
X69590135Y-121995672D01*
X69582452Y-121994001D01*
X69327905Y-121994001D01*
X69321386Y-121994338D01*
X69225794Y-122004257D01*
X69212400Y-122007149D01*
X69058216Y-122058588D01*
X69045038Y-122064761D01*
X68907193Y-122150063D01*
X68895792Y-122159099D01*
X68781261Y-122273829D01*
X68772249Y-122285240D01*
X68687184Y-122423243D01*
X68681037Y-122436424D01*
X68629862Y-122590710D01*
X68626995Y-122604086D01*
X68617328Y-122698438D01*
X68617000Y-122704855D01*
X68617000Y-122729885D01*
X64167609Y-122729885D01*
X64066564Y-122692005D01*
X64004382Y-122685250D01*
X63358114Y-122685250D01*
X63354717Y-122685619D01*
X63320602Y-122689325D01*
X63295932Y-122692005D01*
X63295668Y-122689576D01*
X63266828Y-122689576D01*
X63266564Y-122692005D01*
X63207779Y-122685619D01*
X63204382Y-122685250D01*
X62558114Y-122685250D01*
X62554717Y-122685619D01*
X62520602Y-122689325D01*
X62495932Y-122692005D01*
X62495668Y-122689576D01*
X62466828Y-122689576D01*
X62466564Y-122692005D01*
X62407779Y-122685619D01*
X62404382Y-122685250D01*
X61758114Y-122685250D01*
X61754717Y-122685619D01*
X61720602Y-122689325D01*
X61695932Y-122692005D01*
X61695668Y-122689576D01*
X61666828Y-122689576D01*
X61666564Y-122692005D01*
X61607779Y-122685619D01*
X61604382Y-122685250D01*
X60958114Y-122685250D01*
X60954717Y-122685619D01*
X60920602Y-122689325D01*
X60895932Y-122692005D01*
X60895668Y-122689576D01*
X60866828Y-122689576D01*
X60866564Y-122692005D01*
X60807779Y-122685619D01*
X60804382Y-122685250D01*
X60442748Y-122685250D01*
X60374627Y-122665248D01*
X60328134Y-122611592D01*
X60316748Y-122559250D01*
X60316748Y-121284000D01*
X60336750Y-121215879D01*
X60390406Y-121169386D01*
X60442748Y-121158000D01*
X72010000Y-121158000D01*
X72078121Y-121178002D01*
G37*
%TD.AperFunction*%
%TA.AperFunction,Conductor*%
G36*
X54074447Y-121178002D02*
G01*
X54095421Y-121194905D01*
X55377502Y-122476986D01*
X55411528Y-122539298D01*
X55406463Y-122610113D01*
X55363916Y-122666949D01*
X55311099Y-122687765D01*
X55311470Y-122689325D01*
X55303788Y-122691152D01*
X55295932Y-122692005D01*
X55159543Y-122743135D01*
X55042987Y-122830489D01*
X54955633Y-122947045D01*
X54904503Y-123083434D01*
X54897748Y-123145616D01*
X54897748Y-124734250D01*
X54877746Y-124802371D01*
X54824090Y-124848864D01*
X54771748Y-124860250D01*
X53183114Y-124860250D01*
X53120932Y-124867005D01*
X52984543Y-124918135D01*
X52867987Y-125005489D01*
X52780633Y-125122045D01*
X52729503Y-125258434D01*
X52722748Y-125320616D01*
X52722748Y-125966884D01*
X52723117Y-125970281D01*
X52729503Y-126029066D01*
X52727074Y-126029330D01*
X52727074Y-126058170D01*
X52729503Y-126058434D01*
X52722748Y-126120616D01*
X52722748Y-126766884D01*
X52723117Y-126770281D01*
X52729503Y-126829066D01*
X52727074Y-126829330D01*
X52727074Y-126858170D01*
X52729503Y-126858434D01*
X52722748Y-126920616D01*
X52722748Y-127566884D01*
X52723117Y-127570281D01*
X52729503Y-127629066D01*
X52727074Y-127629330D01*
X52727074Y-127658170D01*
X52729503Y-127658434D01*
X52722748Y-127720616D01*
X52722748Y-128082250D01*
X52702746Y-128150371D01*
X52649090Y-128196864D01*
X52596748Y-128208250D01*
X51660023Y-128208250D01*
X51591902Y-128188248D01*
X51570928Y-128171345D01*
X51472405Y-128072822D01*
X51438379Y-128010510D01*
X51435500Y-127983727D01*
X51435500Y-127192303D01*
X51455502Y-127124182D01*
X51467864Y-127107993D01*
X51534621Y-127033852D01*
X51534622Y-127033851D01*
X51539040Y-127028944D01*
X51634527Y-126863556D01*
X51693542Y-126681928D01*
X51705175Y-126571251D01*
X51712814Y-126498565D01*
X51713504Y-126492000D01*
X51702280Y-126385206D01*
X51694232Y-126308635D01*
X51694232Y-126308633D01*
X51693542Y-126302072D01*
X51634527Y-126120444D01*
X51539040Y-125955056D01*
X51467864Y-125876007D01*
X51437146Y-125812000D01*
X51435500Y-125791697D01*
X51435500Y-125734871D01*
X51455502Y-125666750D01*
X51509158Y-125620257D01*
X51521623Y-125615348D01*
X51591993Y-125591870D01*
X51591995Y-125591869D01*
X51598946Y-125589550D01*
X51749348Y-125496478D01*
X51874305Y-125371303D01*
X51893874Y-125339556D01*
X51963275Y-125226968D01*
X51963276Y-125226966D01*
X51967115Y-125220738D01*
X52011023Y-125088358D01*
X52020632Y-125059389D01*
X52020632Y-125059387D01*
X52022797Y-125052861D01*
X52026879Y-125013026D01*
X52031492Y-124968000D01*
X52033500Y-124948400D01*
X52033500Y-124347600D01*
X52032318Y-124336209D01*
X52023238Y-124248692D01*
X52023237Y-124248688D01*
X52022526Y-124241834D01*
X51999961Y-124174197D01*
X51968868Y-124081002D01*
X51966550Y-124074054D01*
X51873478Y-123923652D01*
X51748303Y-123798695D01*
X51743765Y-123795898D01*
X51703176Y-123738647D01*
X51699946Y-123667724D01*
X51735572Y-123606313D01*
X51744068Y-123598938D01*
X51754207Y-123590902D01*
X51868739Y-123476171D01*
X51877751Y-123464760D01*
X51962816Y-123326757D01*
X51968963Y-123313576D01*
X52020138Y-123159290D01*
X52023005Y-123145914D01*
X52032672Y-123051562D01*
X52033000Y-123045146D01*
X52033000Y-123020115D01*
X52028525Y-123004876D01*
X52027135Y-123003671D01*
X52019452Y-123002000D01*
X50672000Y-123002000D01*
X50603879Y-122981998D01*
X50557386Y-122928342D01*
X50546000Y-122876000D01*
X50546000Y-122620000D01*
X50566002Y-122551879D01*
X50619658Y-122505386D01*
X50672000Y-122494000D01*
X52014884Y-122494000D01*
X52030123Y-122489525D01*
X52031328Y-122488135D01*
X52032999Y-122480452D01*
X52032999Y-122450905D01*
X52032662Y-122444386D01*
X52022743Y-122348794D01*
X52019851Y-122335400D01*
X51968412Y-122181216D01*
X51962239Y-122168038D01*
X51876937Y-122030193D01*
X51867901Y-122018792D01*
X51753171Y-121904261D01*
X51741760Y-121895249D01*
X51603757Y-121810184D01*
X51590574Y-121804036D01*
X51513820Y-121778578D01*
X51455460Y-121738147D01*
X51428223Y-121672583D01*
X51433655Y-121620046D01*
X51437500Y-121608213D01*
X51437500Y-121608212D01*
X51439542Y-121601928D01*
X51444107Y-121558500D01*
X51458814Y-121418565D01*
X51459504Y-121412000D01*
X51447435Y-121297170D01*
X51460207Y-121227332D01*
X51508709Y-121175485D01*
X51572745Y-121158000D01*
X54006326Y-121158000D01*
X54074447Y-121178002D01*
G37*
%TD.AperFunction*%
%TD*%
%TA.AperFunction,Conductor*%
%TO.N,GND*%
G36*
X45720000Y-110464734D02*
G01*
X45678068Y-110416342D01*
X45666682Y-110364000D01*
X45666682Y-108207136D01*
X45720000Y-108204000D01*
X45720000Y-110464734D01*
G37*
%TD.AperFunction*%
%TD*%
%TA.AperFunction,NonConductor*%
G36*
X41370514Y-108522588D02*
G01*
X41338329Y-108577520D01*
X39462754Y-110453095D01*
X39400442Y-110487121D01*
X39373659Y-110490000D01*
X39370000Y-110490000D01*
X41370153Y-108489847D01*
X41370514Y-108522588D01*
G37*
%TD.AperFunction*%
%TA.AperFunction,NonConductor*%
G36*
X43570550Y-108346314D02*
G01*
X43595361Y-108412834D01*
X43595682Y-108421823D01*
X43595682Y-110364000D01*
X43575680Y-110432121D01*
X43522024Y-110478614D01*
X43469682Y-110490000D01*
X41527505Y-110490000D01*
X41459384Y-110469998D01*
X41412891Y-110416342D01*
X41402787Y-110346068D01*
X41432281Y-110281488D01*
X41438410Y-110274905D01*
X43371147Y-108342168D01*
X43550888Y-108331595D01*
X43570550Y-108346314D01*
G37*
%TD.AperFunction*%
M02*
