M48
; DRILL file {KiCad (6.0.0)} date Tue Feb  8 12:17:06 2022
; FORMAT={-:-/ absolute / inch / decimal}
; #@! TF.CreationDate,2022-02-08T12:17:06+05:30
; #@! TF.GenerationSoftware,Kicad,Pcbnew,(6.0.0)
; #@! TF.FileFunction,NonPlated,1,2,NPTH
FMAT,2
INCH
; #@! TA.AperFunction,NonPlated,NPTH,ComponentDrill
T1C0.0689
; #@! TA.AperFunction,NonPlated,NPTH,ComponentDrill
T2C0.1181
; #@! TA.AperFunction,NonPlated,NPTH,ComponentDrill
T3C0.1570
%
G90
G05
T1
X3.0496Y-5.3839
X3.0502Y-4.6348
X3.4496Y-5.3839
X3.4502Y-4.6348
X3.8002Y-4.6348
X3.8002Y-5.3848
X4.2002Y-4.6348
X4.2002Y-5.3848
T2
X3.0996Y-5.2839
X3.1002Y-4.5348
X3.3496Y-5.1839
X3.3502Y-4.4348
X3.8502Y-4.5348
X3.8502Y-5.2848
X4.1002Y-4.4348
X4.1002Y-5.1848
T3
X3.2496Y-5.3839
X3.2502Y-4.6348
X4.0002Y-4.6348
X4.0002Y-5.3848
T0
M30
